<?xml version="1.0" encoding="UTF-8" standalone="no"?>
<!DOCTYPE svg PUBLIC "-//W3C//DTD SVG 1.1//EN" "http://www.w3.org/Graphics/SVG/1.1/DTD/svg11.dtd">
<!-- Created with Vectornator (http://vectornator.io/) -->
<svg height="100%" stroke-miterlimit="10" style="fill-rule:nonzero;clip-rule:evenodd;stroke-linecap:round;stroke-linejoin:round;" version="1.1" viewBox="0 0 1024 1024" width="100%" xml:space="preserve" xmlns="http://www.w3.org/2000/svg" xmlns:vectornator="http://vectornator.io" xmlns:xlink="http://www.w3.org/1999/xlink">
<defs>
<path d="M85.3 0L938.7 0C985.81 0 1024 38.1901 1024 85.3L1024 938.7C1024 985.81 985.81 1024 938.7 1024L85.3 1024C38.1901 1024 0 985.81 0 938.7L0 85.3C0 38.1901 38.1901 0 85.3 0Z" id="Fill"/>
<path d="M180 0L844 0C943.411 0 1024 80.5887 1024 180L1024 844C1024 943.411 943.411 1024 844 1024L180 1024C80.5887 1024 0 943.411 0 844L0 180C0 80.5887 80.5887 0 180 0Z" id="Fill_2"/>
<path d="M0 512C0 229.23 229.23 0 512 0C794.77 0 1024 229.23 1024 512C1024 794.77 794.77 1024 512 1024C229.23 1024 0 794.77 0 512Z" id="Fill_3"/>
</defs>
<g id="logo" vectornator:layerName="logo">
<path d="M0 0L1024 0L1024 1024L0 1024L0 0Z" fill="#ffecd6" fill-rule="nonzero" opacity="0" stroke="none"/>
<g opacity="0">
<use fill="#ffecd6" fill-rule="nonzero" stroke="none" xlink:href="#Fill"/>
<mask height="1024" id="StrokeMask" maskUnits="userSpaceOnUse" width="1024" x="0" y="0">
<rect fill="#000000" height="1024" stroke="none" width="1024" x="0" y="0"/>
<use fill="#ffffff" fill-rule="evenodd" stroke="none" xlink:href="#Fill"/>
</mask>
<use fill="none" mask="url(#StrokeMask)" stroke="#0d2b45" stroke-linecap="round" stroke-linejoin="round" stroke-width="32" xlink:href="#Fill"/>
</g>
<g opacity="1">
<use fill="#ffecd6" fill-rule="nonzero" stroke="none" xlink:href="#Fill_2"/>
<mask height="1024" id="StrokeMask_2" maskUnits="userSpaceOnUse" width="1024" x="0" y="0">
<rect fill="#000000" height="1024" stroke="none" width="1024" x="0" y="0"/>
<use fill="#ffffff" fill-rule="evenodd" stroke="none" xlink:href="#Fill_2"/>
</mask>
<use fill="none" mask="url(#StrokeMask_2)" stroke="#0d2b45" stroke-linecap="round" stroke-linejoin="round" stroke-width="32" xlink:href="#Fill_2"/>
</g>
<g opacity="0">
<use fill="#ffecd6" fill-rule="nonzero" stroke="none" xlink:href="#Fill_3"/>
<mask height="1024" id="StrokeMask_3" maskUnits="userSpaceOnUse" width="1024" x="0" y="0">
<rect fill="#000000" height="1024" stroke="none" width="1024" x="0" y="0"/>
<use fill="#ffffff" fill-rule="evenodd" stroke="none" xlink:href="#Fill_3"/>
</mask>
<use fill="none" mask="url(#StrokeMask_3)" stroke="#0d2b45" stroke-linecap="round" stroke-linejoin="round" stroke-width="32" xlink:href="#Fill_3"/>
</g>
<path d="M596.844 50.0312C549.444 49.2771 556.742 111.229 511.125 111.219C465.508 111.208 473.875 49.9546 427.812 50.6875C397.554 51.169 366.057 99.4952 344.875 166.656C335.917 195.059 329.513 270.453 342.812 293.875C343.054 294.468 343.525 295.04 343.875 295.625C344.204 296.099 344.494 296.679 344.844 297.094C359.097 315.794 428.421 330 512 330C595.493 330 664.773 315.828 679.125 297.156C696.003 279.695 689.306 196.2 679.781 166C658.6 98.8389 627.103 50.5127 596.844 50.0312ZM342.656 368.094C206.52 381.655 112 410.938 112 445C112 491.944 291.086 530 512 530C732.914 530 912 491.944 912 445C912 410.938 817.48 381.655 681.344 368.094C674.619 388.737 601.455 405 512 405C422.545 405 349.381 388.737 342.656 368.094ZM787.719 533.219C787.719 533.219 779.903 538.235 747.719 542.344C715.34 546.477 704 544.406 704 544.406C704 544.406 706.081 562.237 702.656 581.5C699.232 600.763 690.281 621.438 690.281 621.438C690.281 621.437 635.045 653.184 555.438 753.094C475.83 853.004 487.312 965.875 487.312 965.875C487.312 965.875 520.101 881.621 624.219 817.875C728.337 754.129 793.625 751.25 793.625 751.25C793.625 751.25 778.389 749.502 742.688 731.188C706.986 712.873 701.5 704.812 701.5 704.812C701.5 704.813 709.843 686.475 816.875 664.406C923.907 642.338 941.312 642.469 941.312 642.469C941.312 642.469 893.711 614.876 855.312 587.562C816.915 560.249 787.719 533.219 787.719 533.219ZM209.281 536.125C209.281 536.125 186.859 561.313 156.094 588.312C125.329 615.312 86.2188 644.125 86.2188 644.125C86.2188 644.125 149.85 650.902 204.562 663.594C259.275 676.285 305.062 694.875 305.062 694.875C305.063 694.875 289.1 710.937 268.875 728.125C248.65 745.313 224.156 763.625 224.156 763.625C224.156 763.625 293.804 786.499 356.812 815.562C419.821 844.626 476.188 879.875 476.188 879.875C476.188 879.875 479.08 854.499 481.656 843C484.233 831.501 493.594 813.094 493.594 813.094C493.594 813.094 444.572 781.045 376.188 698.5C307.803 615.955 286.781 545.656 286.781 545.656C286.781 545.656 264.627 544.95 245.25 542.562C225.873 540.175 209.281 536.125 209.281 536.125Z" fill="#ffecd6" fill-rule="nonzero" opacity="1" stroke="none"/>
<path d="M596.844 50.0312C589.706 49.9177 583.931 51.3517 578.906 53.6562L589.531 72L624.156 72L627.625 66.0312C617.522 55.9801 607.113 50.1946 596.844 50.0312ZM427.812 50.6875C416.951 50.8603 405.927 57.2779 395.281 68.4375L390.344 77L407.656 107L442.312 107L459.625 77L447.031 55.1875C441.812 52.3318 435.648 50.5628 427.812 50.6875ZM570.406 58.9062C554.154 72.3383 547.972 97.1938 529 107L563.531 107L580.875 77L570.406 58.9062ZM634.656 73.7812L632.812 77L650.125 107L655.781 107C649.068 94.0491 642.007 82.6887 634.656 73.7812ZM468.281 82L450.969 112L468.281 142L502.906 142L520.25 112L519.344 110.469C516.805 110.954 514.079 111.219 511.125 111.219C488.984 111.214 479.571 96.7702 470.469 82L468.281 82ZM589.531 82L572.188 112L589.531 142L624.156 142L641.469 112L624.156 82L589.531 82ZM382.781 83.9062C372.177 99.1854 362.198 119.044 353.438 142L381.688 142L399 112L382.781 83.9062ZM407.656 117L390.344 147L407.656 177L442.312 177L459.625 147L442.312 117L407.656 117ZM528.906 117L511.594 147L528.906 177L563.531 177L580.875 147L563.531 117L528.906 117ZM650.125 117L632.812 147L650.125 177L682.531 177C681.647 172.979 680.745 169.054 679.781 166C674.134 148.094 667.739 131.679 660.844 117L650.125 117ZM349.969 152C348.255 156.848 346.476 161.581 344.875 166.656C342.496 174.2 340.354 185.149 338.656 197.469L347.031 212L381.688 212L399 182L381.688 152L349.969 152ZM468.281 152L450.969 182L468.281 212L502.906 212L520.25 182L502.906 152L468.281 152ZM589.531 152L572.188 182L589.531 212L624.156 212L641.469 182L624.156 152L589.531 152ZM407.656 187L390.344 217L407.656 247L442.312 247L459.625 217L442.312 187L407.656 187ZM528.906 187L511.594 217L528.906 247L563.531 247L580.875 217L563.531 187L528.906 187ZM650.125 187L632.812 217L650.125 247L684.781 247L689.344 239.125C688.993 221.03 687.097 202.401 684.438 187L650.125 187ZM336.719 214.125C336.524 216.267 336.441 218.457 336.281 220.625L338.375 217L336.719 214.125ZM347.031 222L335.375 242.219C335.298 249.394 335.455 256.28 335.938 262.781L347.031 282L381.688 282L399 252L381.688 222L347.031 222ZM468.281 222L450.969 252L468.281 282L502.906 282L520.25 252L502.906 222L468.281 222ZM589.531 222L572.188 252L589.531 282L624.156 282L641.469 252L624.156 222L589.531 222ZM407.656 257L390.344 287L407.656 317L442.312 317L459.625 287L442.312 257L407.656 257ZM528.906 257L511.594 287L528.906 317L563.531 317L580.875 287L563.531 257L528.906 257ZM650.125 257L632.812 287L648.188 313.656C663.312 308.837 674.411 303.29 679.125 297.156C684.54 291.554 687.316 278.817 688.562 263.562L684.781 257L650.125 257ZM347.031 292L344.438 296.5C344.567 296.706 344.701 296.924 344.844 297.094C351.541 305.881 370.721 313.612 397.5 319.406L381.688 292L347.031 292ZM468.281 292L450.969 322L454.188 327.594C472.242 329.135 491.672 330 512 330C513.249 330 514.414 329.913 515.656 329.906L520.25 322L502.906 292L468.281 292ZM589.531 292L572.188 322L575.125 327.062C599.554 324.751 621.079 321.139 638.344 316.594L624.156 292L589.531 292ZM528.906 327L527.375 329.656C540.074 329.385 552.362 328.862 564.094 327.969L563.531 327L528.906 327ZM681.344 368.094C679.078 375.05 669.126 381.493 653.688 387L684.781 387L694.781 369.688C690.215 369.186 686.01 368.559 681.344 368.094ZM343.062 368.875L329.719 392L347.031 422L381.688 422L397.562 394.5C367.378 388.004 347.213 379.009 343.062 368.875ZM331.188 369.469C313.409 371.394 296.158 373.493 280.031 375.938L286.406 387L321.062 387L331.188 369.469ZM705.562 370.969L693.438 392L710.75 422L745.406 422L762.719 392L754.344 377.5C739.073 375.027 722.442 372.964 705.562 370.969ZM269.406 377.562C247.776 381.071 227.843 385.021 210 389.375L208.469 392L225.812 422L260.438 422L277.75 392L269.406 377.562ZM767.188 379.719L771.375 387L803.562 387C792.152 384.421 780.023 381.981 767.188 379.719ZM815.906 389.875L814.688 392L832 422L866.656 422L874.188 408.969C858.819 402.033 839.138 395.63 815.906 389.875ZM640.812 390.844C623.741 395.56 602.453 399.369 577.844 401.812L589.531 422L624.156 422L641.469 392L640.812 390.844ZM182.375 397C174.711 399.363 167.463 401.816 160.938 404.344L147.875 427L165.188 457L199.812 457L217.156 427L199.812 397L182.375 397ZM286.406 397L269.094 427L286.406 457L321.062 457L338.375 427L321.062 397L286.406 397ZM407.656 397L390.344 427L407.656 457L442.312 457L459.625 427L445 401.688C432.867 400.456 421.722 398.832 411.25 397L407.656 397ZM650.125 397L632.812 427L650.125 457L684.781 457L702.094 427L684.781 397L650.125 397ZM771.375 397L754.062 427L771.375 457L806.031 457L823.344 427L806.031 397L771.375 397ZM457.156 402.719L468.281 422L502.906 422L512.75 404.969C512.494 404.969 512.257 405 512 405C492.712 405 474.427 404.112 457.156 402.719ZM566.844 402.719C553.392 403.804 539.211 404.463 524.469 404.719L511.594 427L528.906 457L563.531 457L580.875 427L566.844 402.719ZM145.5 411.094C138.242 414.615 132.071 418.247 127.094 422L139.188 422L145.5 411.094ZM883.156 413.406L875.312 427L892.625 457L907.969 457C910.58 453.076 912 449.077 912 445C912 433.818 901.657 423.171 883.156 413.406ZM116.719 432C113.649 436.237 112 440.578 112 445C112 457.264 124.47 468.907 146.469 479.438L156.531 462L139.188 432L116.719 432ZM225.812 432L208.469 462L225.812 492L260.438 492L277.75 462L260.438 432L225.812 432ZM347.031 432L329.719 462L347.031 492L381.688 492L399 462L381.688 432L347.031 432ZM468.281 432L450.969 462L468.281 492L502.906 492L520.25 462L502.906 432L468.281 432ZM589.531 432L572.188 462L589.531 492L624.156 492L641.469 462L624.156 432L589.531 432ZM710.75 432L693.438 462L710.75 492L745.406 492L762.719 462L745.406 432L710.75 432ZM832 432L814.688 462L832 492L845.219 492C855.56 488.695 864.537 485.202 872.656 481.594L883.969 462L866.656 432L832 432ZM165.188 467L155.656 483.5C171.518 490.119 191.349 496.179 214.469 501.656L217.156 497L199.812 467L165.188 467ZM286.406 467L269.094 497L278.875 513.969C293.589 516.218 308.915 518.31 325.031 520.125L338.375 497L321.062 467L286.406 467ZM407.656 467L390.344 497L407.656 527C407.749 527.005 407.844 526.995 407.938 527L442.312 527L459.625 497L442.312 467L407.656 467ZM528.906 467L511.594 497L528.906 527L563.531 527L580.875 497L563.531 467L528.906 467ZM650.125 467L632.812 497L648.844 524.781C662.296 523.739 675.392 522.55 688.125 521.219L702.094 497L684.781 467L650.125 467ZM771.375 467L754.062 497L762.281 511.25C784.37 507.477 804.563 503.235 822.438 498.562L823.344 497L806.031 467L771.375 467ZM892.625 467L888.875 473.5C892.446 471.368 895.631 469.207 898.406 467L892.625 467ZM225.812 502L224.625 504.031C237.576 506.877 251.486 509.528 266.188 511.969L260.438 502L225.812 502ZM347.031 502L335.938 521.25C355.11 523.254 374.967 525.005 395.719 526.344L381.688 502L347.031 502ZM468.281 502L452.719 528.969C472.11 529.583 491.805 530 512 530C514.384 530 516.689 529.946 519.062 529.938L502.906 502L468.281 502ZM589.531 502L574 528.875C595.906 528.149 617.237 527.106 637.812 525.656L624.156 502L589.531 502ZM710.75 502L700.375 519.969C718.432 517.916 735.451 515.534 751.719 512.938L745.406 502L710.75 502ZM211.062 536.5L225.812 562L260.438 562L270.375 544.781C262.843 544.299 253.886 543.627 245.25 542.562C227.481 540.373 213.501 537.08 211.062 536.5ZM776.656 537C774.897 537.472 772.859 537.956 770.531 538.469L754.062 567L771.375 597L806.031 597L823.344 567L819.344 560.094C803.809 547.517 795.395 540.03 792.062 537L776.656 537ZM757.656 540.75C754.354 541.282 751.755 541.828 747.719 542.344C715.34 546.477 704 544.406 704 544.406C704 544.406 704.211 548.36 704.375 550.938L710.75 562L745.406 562L757.656 540.75ZM203.094 542.688C196.515 549.835 181.827 565.368 158.75 585.875L165.188 597L199.812 597L217.156 567L203.094 542.688ZM281.562 545.406L269.094 567L286.406 597L308.938 597C293.054 565.921 286.781 545.656 286.781 545.656C286.781 545.656 283.038 545.466 281.562 545.406ZM225.812 572L208.469 602L225.812 632L260.438 632L277.75 602L260.438 572L225.812 572ZM710.75 572L700.875 589.125C699.384 595.317 697.693 601.201 695.938 606.344L710.75 632L745.406 632L762.719 602L745.406 572L710.75 572ZM832 572L814.688 602L832 632L866.656 632L881.906 605.594C873.005 599.752 863.929 593.692 855.312 587.562C847.843 582.249 841.126 577.095 834.5 572L832 572ZM151.062 592.531C133.066 608.012 116.818 620.841 103.844 630.75L104.562 632L139.188 632L156.531 602L151.062 592.531ZM165.188 607L147.875 637L157.906 654.375C172.392 656.864 187.334 659.701 202.094 663.062L217.156 637L199.812 607L165.188 607ZM286.406 607L269.094 637L286.406 667L321.062 667L335.188 642.531C326.895 629.671 320.132 617.951 314.219 607L286.406 607ZM771.375 607L754.062 637L771.375 667L805.406 667C805.656 666.945 805.874 666.898 806.125 666.844L823.344 637L806.031 607L771.375 607ZM890.281 611.031L875.312 637L883.562 651.281C931.233 642.516 941.312 642.469 941.312 642.469C941.312 642.469 917.544 628.583 890.281 611.031ZM691.406 618.5C691.191 619.014 690.281 621.438 690.281 621.438C690.281 621.437 673.008 631.737 644.5 657.25L650.125 667L684.781 667L702.094 637L691.406 618.5ZM95.8125 636.844C92.9376 638.999 86.2188 644.125 86.2188 644.125C86.2188 644.125 89.7127 644.523 91.4375 644.719L95.9062 637L95.8125 636.844ZM104.562 642L102.219 646.062C112.77 647.389 127.834 649.574 145.156 652.344L139.188 642L104.562 642ZM225.812 642L212.219 665.5C234.935 671.076 255.407 677.364 271.531 682.781L277.75 672L260.438 642L225.812 642ZM710.75 642L693.438 672L708.75 698.562C715.928 693.881 730.575 686.896 758.906 678.594L762.719 672L745.406 642L710.75 642ZM832 642L819.344 663.906C841.292 659.395 858.31 656.085 873.188 653.281L866.656 642L832 642ZM341.312 651.906L329.719 672L347.031 702L379.219 702C378.181 700.76 377.235 699.764 376.188 698.5C362.8 682.34 351.267 666.692 341.312 651.906ZM636.906 664.094C625.834 674.376 613.211 687.114 599.438 702L624.156 702L641.469 672L636.906 664.094ZM286.406 677L281.156 686.094C295.336 691.077 305.062 694.875 305.062 694.875C305.063 694.875 293.143 706.764 277.125 720.906L286.406 737L321.062 737L338.375 707L321.062 677L286.406 677ZM650.125 677L632.812 707L650.125 737L684.781 737L702.094 707L684.781 677L650.125 677ZM347.031 712L329.719 742L347.031 772L381.688 772L399 742L381.688 712L347.031 712ZM590.281 712C589.584 712.779 588.952 713.428 588.25 714.219L572.188 742L589.531 772L624.156 772L641.469 742L624.156 712L590.281 712ZM710.562 712.344L693.438 742L710.75 772L715.281 772C729.674 766.378 741.982 762.42 752.656 759.438L762.719 742L761.656 740.125C755.996 737.63 750.036 734.957 742.688 731.188C726.158 722.708 716.592 716.645 710.562 712.344ZM269.438 727.625C269.237 727.796 269.077 727.954 268.875 728.125C248.65 745.313 224.156 763.625 224.156 763.625C224.156 763.625 234.475 767.153 248.156 772L260.438 772L277.75 742L269.438 727.625ZM403.719 730.156L407.656 737L410.094 737C407.943 734.683 405.93 732.592 403.719 730.156ZM286.406 747L269.094 777L271 780.281C286.847 786.186 305.123 793.323 324.312 801.375L338.375 777L321.062 747L286.406 747ZM407.656 747L390.344 777L407.656 807L442.312 807L456.25 782.844C445.728 773.395 433.403 761.557 419.438 747L407.656 747ZM560.406 747C558.738 749.06 557.128 750.972 555.438 753.094C543.106 768.57 533.185 784.338 524.844 799.969L528.906 807L563.531 807L580.875 777L563.531 747L560.406 747ZM650.125 747L632.812 777L648.312 803.875C667.852 793.001 685.725 784.374 701.781 777.531L702.094 777L684.781 747L650.125 747ZM771.375 747L766.281 755.844C783.915 751.753 793.625 751.25 793.625 751.25C793.625 751.25 788.57 750.445 778.656 747L771.375 747ZM347.031 782L333.625 805.25C341.365 808.579 349.131 812.02 356.812 815.562C367.599 820.538 378.008 825.682 388.156 830.812L399 812L381.688 782L347.031 782ZM589.531 782L572.188 812L589.438 841.812C600.041 833.659 611.582 825.612 624.219 817.875C629.478 814.655 634.567 811.698 639.625 808.781L624.156 782L589.531 782ZM463.906 789.594L450.969 812L468.281 842L481.969 842C484.814 830.466 493.594 813.094 493.594 813.094C493.594 813.094 482.473 805.656 463.906 789.594ZM519.344 810.406C517.029 815.166 514.972 819.865 512.969 824.562L520.25 812L519.344 810.406ZM407.656 817L397.062 835.344C418.335 846.334 435.735 856.101 449.688 864.188L459.625 847L442.312 817L407.656 817ZM528.906 817L511.594 847L528.906 877L549.781 877C558.431 868.167 568.159 859.205 579 850.25L580.875 847L563.531 817L528.906 817ZM468.281 852L458.344 869.219C468.642 875.298 476.188 879.875 476.188 879.875C476.188 879.875 477.977 864.309 480 852L468.281 852ZM502.719 852C495.606 874.074 491.486 894.642 489.281 912L502.906 912L520.25 882L502.906 852L502.719 852ZM528.906 887L511.594 917L513.531 920.344C520.714 910.146 529.61 898.855 540.375 887L528.906 887ZM488.188 922C485.635 948.71 487.312 965.875 487.312 965.875C487.312 965.875 493.137 951.175 507.281 929.531L502.906 922L488.188 922Z" fill="#0d2b45" fill-rule="nonzero" opacity="1" stroke="none"/>
<path d="M596.844 50.0312C549.444 49.2771 556.742 111.229 511.125 111.219C465.508 111.208 473.875 49.9546 427.812 50.6875C397.554 51.169 366.057 99.4952 344.875 166.656C335.917 195.059 329.513 270.453 342.812 293.875C343.054 294.468 343.525 295.04 343.875 295.625C344.204 296.099 344.494 296.679 344.844 297.094C359.097 315.794 428.421 330 512 330C595.493 330 664.773 315.828 679.125 297.156C696.003 279.695 689.306 196.2 679.781 166C658.6 98.8389 627.103 50.5127 596.844 50.0312ZM342.656 368.094C206.52 381.655 112 410.938 112 445C112 491.944 291.086 530 512 530C732.914 530 912 491.944 912 445C912 410.938 817.48 381.655 681.344 368.094C674.619 388.737 601.455 405 512 405C422.545 405 349.381 388.737 342.656 368.094ZM787.719 533.219C787.719 533.219 779.903 538.235 747.719 542.344C715.34 546.477 704 544.406 704 544.406C704 544.406 706.081 562.237 702.656 581.5C699.232 600.763 690.281 621.438 690.281 621.438C690.281 621.438 635.045 653.184 555.438 753.094C475.83 853.004 487.312 965.875 487.312 965.875C487.312 965.875 520.101 881.621 624.219 817.875C728.337 754.129 793.625 751.25 793.625 751.25C793.625 751.25 778.389 749.502 742.688 731.188C706.986 712.873 701.5 704.812 701.5 704.812C701.5 704.812 709.843 686.475 816.875 664.406C923.907 642.338 941.312 642.469 941.312 642.469C941.312 642.469 893.711 614.876 855.312 587.562C816.915 560.249 787.719 533.219 787.719 533.219ZM209.281 536.125C209.281 536.125 186.859 561.313 156.094 588.312C125.329 615.312 86.2188 644.125 86.2188 644.125C86.2188 644.125 149.85 650.902 204.562 663.594C259.275 676.285 305.062 694.875 305.062 694.875C305.062 694.875 289.1 710.937 268.875 728.125C248.65 745.313 224.156 763.625 224.156 763.625C224.156 763.625 293.804 786.499 356.812 815.562C419.821 844.626 476.188 879.875 476.188 879.875C476.188 879.875 479.08 854.499 481.656 843C484.233 831.501 493.594 813.094 493.594 813.094C493.594 813.094 444.572 781.045 376.188 698.5C307.803 615.955 286.781 545.656 286.781 545.656C286.781 545.656 264.627 544.95 245.25 542.562C225.873 540.175 209.281 536.125 209.281 536.125Z" fill="none" opacity="1" stroke="#ffecd6" stroke-linecap="round" stroke-linejoin="round" stroke-width="9"/>
</g>
</svg>
