<?xml version="1.0" encoding="UTF-8" standalone="no"?>
<!DOCTYPE svg PUBLIC "-//W3C//DTD SVG 1.1//EN" "http://www.w3.org/Graphics/SVG/1.1/DTD/svg11.dtd">
<!-- Created with Vectornator (http://vectornator.io/) -->
<svg height="100%" stroke-miterlimit="10" style="fill-rule:nonzero;clip-rule:evenodd;stroke-linecap:round;stroke-linejoin:round;" version="1.1" viewBox="0 0 1024 1024" width="100%" xml:space="preserve" xmlns="http://www.w3.org/2000/svg" xmlns:vectornator="http://vectornator.io" xmlns:xlink="http://www.w3.org/1999/xlink">
<defs>
<path d="M0 512C0 229.23 229.23 0 512 0C794.77 0 1024 229.23 1024 512C1024 794.77 794.77 1024 512 1024C229.23 1024 0 794.77 0 512Z" id="Fill"/>
<path d="M85.3 0L938.7 0C985.81 0 1024 38.1901 1024 85.3L1024 938.7C1024 985.81 985.81 1024 938.7 1024L85.3 1024C38.1901 1024 0 985.81 0 938.7L0 85.3C0 38.1901 38.1901 0 85.3 0Z" id="Fill_2"/>
<path d="M180 0L844 0C943.411 0 1024 80.5887 1024 180L1024 844C1024 943.411 943.411 1024 844 1024L180 1024C80.5887 1024 0 943.411 0 844L0 180C0 80.5887 80.5887 0 180 0Z" id="Fill_3"/>
</defs>
<clipPath id="ArtboardFrame">
<rect height="1024" width="1024" x="0" y="0"/>
</clipPath>
<g clip-path="url(#ArtboardFrame)" id="inverted" vectornator:layerName="inverted">
<path d="M0 512C0 229.23 229.23 0 512 0C794.77 0 1024 229.23 1024 512C1024 794.77 794.77 1024 512 1024C229.23 1024 0 794.77 0 512Z" fill="#ffecd6" fill-rule="nonzero" opacity="0" stroke="none"/>
<path d="M515.594 0.09375L511.594 7L528.906 37L563.531 37L580.875 7L579.469 4.5625C558.539 1.80522 537.241 0.243376 515.594 0.09375ZM457.281 2.96875C435.838 5.24788 414.819 8.93798 394.25 13.7812L407.656 37L442.312 37L459.625 7L457.281 2.96875ZM468.281 12L450.969 42L468.281 72L502.906 72L520.25 42L502.906 12L468.281 12ZM589.531 12L572.188 42L578.906 53.6562C583.931 51.3517 589.706 49.9177 596.844 50.0312C607.113 50.1946 617.522 55.9801 627.625 66.0312L641.469 42L624.469 12.5625C623.674 12.3844 622.889 12.1744 622.094 12L589.531 12ZM637.781 15.625L650.125 37L684.781 37L688.188 31.125C671.762 25.1045 654.946 19.961 637.781 15.625ZM384.031 16.125C367.694 20.3283 351.694 25.2987 336.031 31.0312L329.719 42L347.031 72L381.688 72L399 42L384.062 16.125C384.053 16.1275 384.041 16.1225 384.031 16.125ZM697.562 34.8438L693.438 42L710.75 72L745.406 72L752.375 59.9062C734.711 50.4949 716.383 42.1693 697.562 34.8438ZM297.781 47C292.482 49.4455 287.231 51.9743 282.031 54.5938L269.094 77L286.406 107L321.062 107L338.375 77L321.062 47L297.781 47ZM407.656 47L395.281 68.4375C405.927 57.2779 416.951 50.8603 427.812 50.6875C435.648 50.5628 441.812 52.3318 447.031 55.1875L442.312 47L407.656 47ZM528.906 47L511.594 77L528.906 107L529 107C547.972 97.1938 554.154 72.3383 570.406 58.9062L563.531 47L528.906 47ZM650.125 47L634.656 73.7812C642.007 82.6887 649.067 94.0491 655.781 107L684.781 107L702.094 77L684.781 47L650.125 47ZM265.531 63.1562C260.354 66.0049 255.253 68.9794 250.188 72L260.438 72L265.531 63.1562ZM761.156 64.7188L754.062 77L771.375 107L806.031 107L811.781 97.0625C795.582 85.3386 778.705 74.515 761.156 64.7188ZM234.219 82C229.606 84.9863 225.041 88.0271 220.531 91.1562L208.469 112L225.812 142L260.438 142L277.75 112L260.438 82L234.219 82ZM347.031 82L329.719 112L347.031 142L353.438 142C362.198 119.044 372.177 99.1854 382.781 83.9062L381.688 82L347.031 82ZM470.469 82C479.571 96.7702 488.984 111.214 511.125 111.219C514.079 111.219 516.804 110.954 519.344 110.469L502.906 82L470.469 82ZM710.75 82L693.438 112L710.75 142L745.406 142L762.719 112L745.406 82L710.75 82ZM819.906 102.938L814.688 112L832 142L865.688 142C851.185 128.133 835.957 115.038 819.906 102.938ZM200.531 105.719C199.99 106.134 199.477 106.583 198.938 107L199.812 107L200.531 105.719ZM186.219 117C173.521 127.484 161.345 138.577 149.719 150.219L165.188 177L199.812 177L217.156 147L199.812 117L186.219 117ZM286.406 117L269.094 147L286.406 177L321.062 177L338.375 147L321.062 117L286.406 117ZM660.844 117C667.739 131.679 674.134 148.094 679.781 166C680.745 169.054 681.647 172.979 682.531 177L684.781 177L702.094 147L684.781 117L660.844 117ZM771.375 117L754.062 147L771.375 177L806.031 177L823.344 147L806.031 117L771.375 117ZM225.812 152L208.469 182L225.812 212L260.438 212L277.75 182L260.438 152L225.812 152ZM347.031 152L329.719 182L338.656 197.469C340.354 185.149 342.496 174.2 344.875 166.656C346.476 161.581 348.255 156.848 349.969 152L347.031 152ZM710.75 152L693.438 182L710.75 212L745.406 212L762.719 182L745.406 152L710.75 152ZM832 152L814.688 182L832 212L866.656 212L883.969 182L866.656 152L832 152ZM142.531 157.781C127.838 173.103 113.994 189.229 101.281 206.281L104.562 212L139.188 212L156.531 182L142.531 157.781ZM881.594 157.906L892.625 177L899.031 177C893.384 170.482 887.558 164.13 881.594 157.906ZM165.188 187L147.875 217L165.188 247L199.812 247L217.156 217L199.812 187L165.188 187ZM286.406 187L269.094 217L286.406 247L321.062 247L336.281 220.625C336.441 218.457 336.524 216.267 336.719 214.125L321.062 187L286.406 187ZM684.438 187C687.097 202.401 688.993 221.03 689.344 239.125L702.094 217L684.781 187L684.438 187ZM771.375 187L754.062 217L771.375 247L806.031 247L823.344 217L806.031 187L771.375 187ZM892.625 187L875.312 217L892.625 247L927.25 247L938.125 228.188C928.624 213.952 918.466 200.181 907.625 187L892.625 187ZM94.9062 215.25C87.5389 225.586 80.4423 236.113 73.8438 247L78.5938 247L95.9062 217L94.9062 215.25ZM104.562 222L87.25 252L104.562 282L139.188 282L156.531 252L139.188 222L104.562 222ZM225.812 222L208.469 252L225.812 282L260.438 282L277.75 252L260.438 222L225.812 222ZM710.75 222L693.438 252L710.75 282L745.406 282L762.719 252L745.406 222L710.75 222ZM832 222L814.688 252L832 282L866.656 282L883.969 252L866.656 222L832 222ZM944.188 237.656L935.906 252L953.25 282L969.406 282C961.727 266.759 953.298 251.978 944.188 237.656ZM335.375 242.219L329.719 252L335.938 262.781C335.455 256.28 335.298 249.394 335.375 242.219ZM68.0938 257C57.982 274.565 48.7889 292.733 40.7812 311.531L43.9375 317L78.5938 317L95.9062 287L78.5938 257L68.0938 257ZM165.188 257L147.875 287L165.188 317L199.812 317L217.156 287L199.812 257L165.188 257ZM286.406 257L269.094 287L286.406 317L321.062 317L338.375 287L321.062 257L286.406 257ZM771.375 257L754.062 287L771.375 317L806.031 317L823.344 287L806.031 257L771.375 257ZM892.625 257L875.312 287L892.625 317L927.25 317L944.594 287L927.25 257L892.625 257ZM688.562 263.562C687.316 278.817 684.54 291.554 679.125 297.156C674.411 303.29 663.312 308.837 648.188 313.656L650.125 317L684.781 317L702.094 287L688.562 263.562ZM104.562 292L87.25 322L104.562 352L139.188 352L156.531 322L139.188 292L104.562 292ZM225.812 292L208.469 322L225.812 352L260.438 352L277.75 322L260.438 292L225.812 292ZM710.75 292L693.438 322L710.75 352L745.406 352L762.719 322L745.406 292L710.75 292ZM832 292L814.688 322L832 352L866.656 352L883.969 322L866.656 292L832 292ZM953.25 292L935.906 322L953.25 352L987.875 352L994.469 340.562C988.573 323.972 981.884 307.752 974.375 292L953.25 292ZM344.438 296.5L329.719 322L347.031 352L381.688 352L399 322L397.5 319.406C370.721 313.612 351.541 305.881 344.844 297.094C344.701 296.924 344.567 296.706 344.438 296.5ZM638.344 316.594C621.079 321.139 599.554 324.751 575.125 327.062L589.531 352L624.156 352L641.469 322L638.344 316.594ZM43.9375 327L26.625 357L43.9375 387L78.5938 387L95.9062 357L78.5938 327L43.9375 327ZM165.188 327L147.875 357L165.188 387L199.812 387L217.156 357L199.812 327L165.188 327ZM286.406 327L269.094 357L280.031 375.938C296.158 373.493 313.409 371.394 331.188 369.469L338.375 357L321.062 327L286.406 327ZM407.656 327L390.344 357L407.656 387L442.312 387L459.625 357L442.312 327L407.656 327ZM650.125 327L632.812 357L650.125 387L653.688 387C669.126 381.493 679.078 375.05 681.344 368.094C686.01 368.559 690.215 369.186 694.781 369.688L702.094 357L684.781 327L650.125 327ZM771.375 327L754.062 357L767.188 379.719C780.023 381.981 792.152 384.421 803.562 387L806.031 387L823.344 357L806.031 327L771.375 327ZM892.625 327L875.312 357L892.625 387L927.25 387L944.594 357L927.25 327L892.625 327ZM454.188 327.594L468.281 352L502.906 352L515.656 329.906C514.414 329.913 513.249 330 512 330C491.672 330 472.242 329.135 454.188 327.594ZM564.094 327.969C552.362 328.862 540.074 329.385 527.375 329.656L511.594 357L528.906 387L563.531 387L580.875 357L564.094 327.969ZM998.75 353.156L996.531 357L1003.72 369.438C1002.14 363.973 1000.51 358.544 998.75 353.156ZM104.562 362L87.25 392L104.562 422L127.094 422C132.071 418.247 138.242 414.615 145.5 411.094L156.531 392L139.188 362L104.562 362ZM225.812 362L210 389.375C227.843 385.021 247.776 381.071 269.406 377.562L260.438 362L225.812 362ZM347.031 362L343.062 368.875C347.213 379.009 367.378 388.004 397.562 394.5L399 392L381.688 362L347.031 362ZM468.281 362L450.969 392L457.156 402.719C474.427 404.112 492.712 405 512 405C512.257 405 512.494 404.969 512.75 404.969L520.25 392L502.906 362L468.281 362ZM589.531 362L572.188 392L577.844 401.812C602.453 399.369 623.741 395.56 640.812 390.844L624.156 362L589.531 362ZM710.75 362L705.562 370.969C722.442 372.964 739.073 375.027 754.344 377.5L745.406 362L710.75 362ZM832 362L815.906 389.875C839.138 395.63 858.819 402.032 874.188 408.969L883.969 392L866.656 362L832 362ZM953.25 362L935.906 392L953.25 422L987.875 422L1005.19 392L987.875 362L953.25 362ZM20.9375 367.125C15.664 385.027 11.3734 403.341 8.0625 422L17.9688 422L35.2812 392L20.9375 367.125ZM43.9375 397L26.625 427L43.9375 457L78.5938 457L95.9062 427L78.5938 397L43.9375 397ZM165.188 397L160.938 404.344C167.463 401.816 174.711 399.363 182.375 397L165.188 397ZM411.25 397C421.722 398.832 432.867 400.456 445 401.688L442.312 397L411.25 397ZM528.906 397L524.469 404.719C539.211 404.463 553.392 403.804 566.844 402.719L563.531 397L528.906 397ZM892.625 397L883.156 413.406C901.657 423.171 912 433.818 912 445C912 449.077 910.58 453.076 907.969 457L927.25 457L944.594 427L927.25 397L892.625 397ZM1011.72 400.719L996.531 427L1013.88 457L1021 457C1018.96 437.898 1015.8 419.133 1011.72 400.719ZM6.28125 432C3.19754 451.648 1.28189 471.678 0.5 492L17.9688 492L35.2812 462L17.9688 432L6.28125 432ZM104.562 432L87.25 462L104.562 492L139.188 492L146.469 479.438C124.47 468.907 112 457.264 112 445C112 440.578 113.649 436.237 116.719 432L104.562 432ZM953.25 432L935.906 462L953.25 492L987.875 492L1005.19 462L987.875 432L953.25 432ZM43.9375 467L26.625 497L43.9375 527L78.5938 527L95.9062 497L78.5938 467L43.9375 467ZM898.406 467C895.631 469.207 892.446 471.368 888.875 473.5L875.312 497L892.625 527L927.25 527L944.594 497L927.25 467L898.406 467ZM1013.88 467L996.531 497L1013.88 527L1023.62 527C1023.77 522.003 1024 517.032 1024 512C1024 496.823 1023.2 481.842 1021.91 467L1013.88 467ZM872.656 481.594C864.537 485.202 855.56 488.695 845.219 492L866.656 492L872.656 481.594ZM155.656 483.5L147.875 497L165.188 527L199.812 527L214.469 501.656C191.349 496.179 171.518 490.119 155.656 483.5ZM822.438 498.562C804.563 503.235 784.37 507.477 762.281 511.25L771.375 527L806.031 527L822.438 498.562ZM0.25 502C0.18578 505.339 0 508.646 0 512C0 528.876 0.873071 545.542 2.46875 562L17.9688 562L35.2812 532L17.9688 502L0.25 502ZM104.562 502L87.25 532L104.562 562L139.188 562L156.531 532L139.188 502L104.562 502ZM832 502L814.688 532L832 562L866.656 562L883.969 532L866.656 502L832 502ZM953.25 502L935.906 532L953.25 562L987.875 562L1005.19 532L987.875 502L953.25 502ZM224.625 504.031L208.469 532L211.062 536.5C213.501 537.08 227.481 540.373 245.25 542.562C253.886 543.627 262.843 544.299 270.375 544.781L277.75 532L266.188 511.969C251.486 509.528 237.576 506.877 224.625 504.031ZM751.719 512.938C735.451 515.534 718.432 517.916 700.375 519.969L693.438 532L704.375 550.938C704.211 548.36 704 544.406 704 544.406C704 544.406 715.34 546.477 747.719 542.344C751.755 541.828 754.354 541.282 757.656 540.75L762.719 532L751.719 512.938ZM278.875 513.969L286.406 527L321.062 527L325.031 520.125C308.915 518.31 293.589 516.218 278.875 513.969ZM688.125 521.219C675.392 522.55 662.296 523.739 648.844 524.781L650.125 527L684.781 527L688.125 521.219ZM335.938 521.25L329.719 532L347.031 562L381.688 562L399 532L395.719 526.344C374.967 525.005 355.11 523.254 335.938 521.25ZM637.812 525.656C617.237 527.106 595.906 528.149 574 528.875L572.188 532L589.531 562L624.156 562L641.469 532L637.812 525.656ZM452.719 528.969L450.969 532L468.281 562L502.906 562L520.25 532L519.062 529.938C516.689 529.946 514.384 530 512 530C491.805 530 472.109 529.583 452.719 528.969ZM43.9375 537L26.625 567L43.9375 597L78.5938 597L95.9062 567L78.5938 537L43.9375 537ZM165.188 537L147.875 567L158.75 585.875C181.827 565.368 196.515 549.835 203.094 542.688L199.812 537L165.188 537ZM286.406 537L281.562 545.406C283.038 545.466 286.781 545.656 286.781 545.656C286.781 545.656 293.054 565.922 308.938 597L321.062 597L338.375 567L321.062 537L286.406 537ZM407.656 537L390.344 567L407.656 597L442.312 597L459.625 567L442.312 537L407.656 537ZM528.906 537L511.594 567L528.906 597L563.531 597L580.875 567L563.531 537L528.906 537ZM650.125 537L632.812 567L650.125 597L684.781 597L702.094 567L684.781 537L650.125 537ZM771.375 537L770.531 538.469C772.859 537.956 774.897 537.472 776.656 537L771.375 537ZM792.062 537C795.395 540.03 803.809 547.517 819.344 560.094L806.031 537L792.062 537ZM892.625 537L875.312 567L892.625 597L927.25 597L944.594 567L927.25 537L892.625 537ZM1013.88 537L996.531 567L1013.88 597L1016.84 597C1020.13 577.346 1022.4 557.345 1023.38 537L1013.88 537ZM3.625 572C6.00667 592.388 9.57617 612.416 14.2812 632L17.9688 632L35.2812 602L17.9688 572L3.625 572ZM104.562 572L87.25 602L103.844 630.75C116.818 620.841 133.066 608.012 151.062 592.531L139.188 572L104.562 572ZM347.031 572L329.719 602L347.031 632L381.688 632L399 602L381.688 572L347.031 572ZM468.281 572L450.969 602L468.281 632L502.906 632L520.25 602L502.906 572L468.281 572ZM589.531 572L572.188 602L589.531 632L624.156 632L641.469 602L624.156 572L589.531 572ZM834.5 572C841.126 577.095 847.843 582.25 855.312 587.562C863.929 593.692 873.005 599.752 881.906 605.594L883.969 602L866.656 572L834.5 572ZM953.25 572L935.906 602L953.25 632L987.875 632L1005.19 602L987.875 572L953.25 572ZM700.875 589.125L693.438 602L695.938 606.344C697.693 601.201 699.384 595.317 700.875 589.125ZM43.9375 607L26.625 637L43.9375 667L78.5938 667L91.4375 644.719C89.7127 644.523 86.2188 644.125 86.2188 644.125C86.2188 644.125 92.9376 638.999 95.8125 636.844L78.5938 607L43.9375 607ZM314.219 607C320.132 617.951 326.895 629.671 335.188 642.531L338.375 637L321.062 607L314.219 607ZM407.656 607L390.344 637L407.656 667L442.312 667L459.625 637L442.312 607L407.656 607ZM528.906 607L511.594 637L528.906 667L563.531 667L580.875 637L563.531 607L528.906 607ZM650.125 607L632.812 637L644.5 657.25C673.008 631.737 690.281 621.437 690.281 621.438C690.281 621.438 691.191 619.014 691.406 618.5L684.781 607L650.125 607ZM892.625 607L890.281 611.031C917.544 628.583 941.313 642.469 941.312 642.469C941.312 642.469 931.233 642.516 883.562 651.281L892.625 667L927.25 667L944.594 637L927.25 607L892.625 607ZM1013.88 607L996.531 637L1004.69 651.125C1008.76 636.662 1012.26 621.952 1015.06 607L1013.88 607ZM16.6875 642C20.2899 655.764 24.5251 669.245 29.2188 682.531L35.2812 672L17.9688 642L16.6875 642ZM347.031 642L341.312 651.906C351.267 666.692 362.8 682.34 376.188 698.5C377.235 699.764 378.181 700.76 379.219 702L381.688 702L399 672L381.688 642L347.031 642ZM468.281 642L450.969 672L468.281 702L502.906 702L520.25 672L502.906 642L468.281 642ZM589.531 642L572.188 672L589.531 702L599.438 702C613.211 687.114 625.834 674.376 636.906 664.094L624.156 642L589.531 642ZM953.25 642L935.906 672L953.25 702L987.406 702C992.322 689.713 996.906 677.267 1000.88 664.531L987.875 642L953.25 642ZM102.219 646.062L87.25 672L104.562 702L139.188 702L156.531 672L145.156 652.344C127.834 649.574 112.77 647.389 102.219 646.062ZM873.188 653.281C858.31 656.085 841.292 659.396 819.344 663.906L814.688 672L832 702L866.656 702L883.969 672L873.188 653.281ZM157.906 654.375L165.188 667L199.812 667L202.094 663.062C187.334 659.701 172.392 656.864 157.906 654.375ZM212.219 665.5L208.469 672L225.812 702L260.438 702L271.531 682.781C255.407 677.364 234.935 671.076 212.219 665.5ZM43.9375 677L33.7188 694.719C39.2272 709.127 45.3237 723.251 52.0625 737L78.5938 737L95.9062 707L78.5938 677L43.9375 677ZM165.188 677L147.875 707L165.188 737L199.812 737L217.156 707L199.812 677L165.188 677ZM407.656 677L390.344 707L403.719 730.156C405.93 732.592 407.943 734.683 410.094 737L442.312 737L459.625 707L442.312 677L407.656 677ZM528.906 677L511.594 707L528.906 737L563.531 737L580.875 707L563.531 677L528.906 677ZM771.375 677L754.062 707L771.375 737L806.031 737L823.344 707L806.031 677L771.375 677ZM892.625 677L875.312 707L892.625 737L927.25 737L944.594 707L927.25 677L892.625 677ZM758.906 678.594C730.575 686.896 715.928 693.882 708.75 698.562L710.75 702L745.406 702L758.906 678.594ZM281.156 686.094L269.094 707L277.125 720.906C293.143 706.764 305.063 694.875 305.062 694.875C305.062 694.875 295.336 691.078 281.156 686.094ZM104.562 712L87.25 742L104.562 772L139.188 772L156.531 742L139.188 712L104.562 712ZM225.812 712L208.469 742L225.812 772L248.156 772C234.475 767.153 224.156 763.625 224.156 763.625C224.156 763.625 248.65 745.313 268.875 728.125C269.077 727.954 269.237 727.796 269.438 727.625L260.438 712L225.812 712ZM468.281 712L450.969 742L468.281 772L502.906 772L520.25 742L502.906 712L468.281 712ZM589.531 712L588.25 714.219C588.952 713.428 589.584 712.779 590.281 712L589.531 712ZM710.75 712L710.562 712.344C716.592 716.645 726.158 722.708 742.688 731.188C750.036 734.957 755.996 737.63 761.656 740.125L745.406 712L710.75 712ZM832 712L814.688 742L832 772L866.656 772L883.969 742L866.656 712L832 712ZM953.25 712L935.906 742L953.156 771.812C964.477 752.631 974.653 732.681 983.438 712L953.25 712ZM57.1562 747C65.7439 763.587 75.1508 779.659 85.4375 795.125L95.9062 777L78.5938 747L57.1562 747ZM165.188 747L147.875 777L165.188 807L199.812 807L217.156 777L199.812 747L165.188 747ZM419.438 747C433.403 761.557 445.727 773.395 456.25 782.844L459.625 777L442.312 747L419.438 747ZM528.906 747L511.594 777L524.844 799.969C533.185 784.338 543.106 768.57 555.438 753.094C557.128 750.972 558.738 749.06 560.406 747L528.906 747ZM778.656 747C788.57 750.445 793.625 751.25 793.625 751.25C793.625 751.25 783.915 751.753 766.281 755.844L754.062 777L771.375 807L806.031 807L823.344 777L806.031 747L778.656 747ZM892.625 747L875.312 777L892.625 807L927.25 807L944.594 777L927.25 747L892.625 747ZM752.656 759.438C741.982 762.42 729.674 766.378 715.281 772L745.406 772L752.656 759.438ZM701.781 777.531C685.725 784.374 667.852 793.001 648.312 803.875L650.125 807L684.781 807L701.781 777.531ZM271 780.281L286.406 807L321.062 807L324.312 801.375C305.123 793.323 286.847 786.186 271 780.281ZM104.562 782L91.7188 804.281C100.794 817.305 110.44 829.898 120.656 842L139.188 842L156.531 812L139.188 782L104.562 782ZM225.812 782L208.469 812L225.812 842L260.438 842L277.75 812L260.438 782L225.812 782ZM468.281 782L463.906 789.594C482.473 805.656 493.594 813.094 493.594 813.094C493.594 813.094 484.814 830.466 481.969 842L502.906 842L512.969 824.562C514.972 819.865 517.029 815.166 519.344 810.406L502.906 782L468.281 782ZM710.75 782L693.438 812L710.75 842L745.406 842L762.719 812L745.406 782L710.75 782ZM832 782L814.688 812L832 842L866.656 842L883.969 812L866.656 782L832 782ZM333.625 805.25L329.719 812L347.031 842L381.688 842L388.156 830.812C378.008 825.682 367.599 820.538 356.812 815.562C349.131 812.02 341.365 808.579 333.625 805.25ZM639.625 808.781C634.567 811.698 629.478 814.655 624.219 817.875C611.582 825.612 600.041 833.659 589.438 841.812L589.531 842L624.156 842L641.469 812L639.625 808.781ZM165.188 817L147.875 847L165.188 877L199.812 877L217.156 847L199.812 817L165.188 817ZM286.406 817L269.094 847L286.406 877L321.062 877L338.375 847L321.062 817L286.406 817ZM650.125 817L632.812 847L650.125 877L684.781 877L702.094 847L684.781 817L650.125 817ZM771.375 817L754.062 847L771.375 877L806.031 877L823.344 847L806.031 817L771.375 817ZM892.625 817L875.312 847L884.562 863C898.307 848.417 911.277 833.117 923.25 817L892.625 817ZM397.062 835.344L390.344 847L407.656 877L442.312 877L449.688 864.188C435.735 856.101 418.335 846.335 397.062 835.344ZM579 850.25C568.159 859.205 558.431 868.167 549.781 877L563.531 877L579 850.25ZM129.312 852C137.339 861.027 145.705 869.749 154.344 878.188L139.188 852L129.312 852ZM225.812 852L208.469 882L225.812 912L260.438 912L277.75 882L260.438 852L225.812 852ZM347.031 852L329.719 882L347.031 912L381.688 912L399 882L381.688 852L347.031 852ZM480 852C477.977 864.309 476.188 879.875 476.188 879.875C476.188 879.875 468.642 875.298 458.344 869.219L450.969 882L468.281 912L489.281 912C491.486 894.642 495.606 874.074 502.719 852L480 852ZM589.531 852L572.188 882L589.531 912L624.156 912L641.469 882L624.156 852L589.531 852ZM710.75 852L693.438 882L710.75 912L745.406 912L762.719 882L745.406 852L710.75 852ZM832 852L814.688 882L831.812 911.688C847.804 898.875 863.006 885.139 877.344 870.531L866.656 852L832 852ZM165.188 887L164.594 888C179.482 901.763 195.211 914.595 211.656 926.531L217.156 917L199.812 887L165.188 887ZM286.406 887L269.094 917L286.406 947L321.062 947L338.375 917L321.062 887L286.406 887ZM407.656 887L390.344 917L407.656 947L442.312 947L459.625 917L442.312 887L407.656 887ZM540.375 887C529.61 898.855 520.714 910.146 513.531 920.344L528.906 947L563.531 947L580.875 917L563.531 887L540.375 887ZM650.125 887L632.812 917L650.125 947L684.781 947L702.094 917L684.781 887L650.125 887ZM771.375 887L754.062 917L771.375 947L781.969 947C795.731 938.441 809.057 929.257 821.906 919.469L823.344 917L806.031 887L771.375 887ZM225.812 922L219.812 932.344C236.207 943.762 253.252 954.278 270.969 963.75L277.75 952L260.438 922L225.812 922ZM347.031 922L329.719 952L347.031 982L381.688 982L399 952L381.688 922L347.031 922ZM468.281 922L450.969 952L468.281 982L502.906 982L520.25 952L507.281 929.531C493.137 951.175 487.313 965.875 487.312 965.875C487.312 965.875 485.635 948.71 488.188 922L468.281 922ZM589.531 922L572.188 952L589.531 982L624.156 982L641.469 952L624.156 922L589.531 922ZM710.75 922L693.438 952L710.75 982L715.156 982C729.504 975.789 743.556 969.013 757.188 961.562L762.719 952L745.406 922L710.75 922ZM286.406 957L279.875 968.312C297.729 977.413 316.138 985.603 335.125 992.594L338.375 987L321.062 957L286.406 957ZM407.656 957L390.344 987L405.219 1012.75C412.717 1014.34 420.29 1015.74 427.906 1017L442.312 1017L459.625 987L442.312 957L407.656 957ZM528.906 957L511.594 987L528.906 1017L563.531 1017L580.875 987L563.531 957L528.906 957ZM650.125 957L632.812 987L644.156 1006.69C663.886 1001.43 683.096 994.979 701.812 987.5L702.094 987L684.781 957L650.125 957ZM347.031 992L344.781 995.906C360.18 1001.23 375.881 1005.83 391.906 1009.69L381.688 992L347.031 992ZM468.281 992L451.906 1020.38C471.632 1022.68 491.655 1024 512 1024C514.411 1024 516.784 1023.85 519.188 1023.81L520.25 1022L502.906 992L468.281 992ZM589.531 992L573.219 1020.22C593.91 1017.75 614.236 1014.08 634.094 1009.22L624.156 992L589.531 992Z" fill="#0d2b45" fill-rule="nonzero" opacity="0" stroke="none"/>
<g opacity="0">
<mask height="1024" id="StrokeMask" maskUnits="userSpaceOnUse" width="1024" x="0" y="0">
<rect fill="#000000" height="1024" stroke="none" width="1024" x="0" y="0"/>
<use fill="#ffffff" fill-rule="evenodd" stroke="none" xlink:href="#Fill"/>
</mask>
<use fill="none" mask="url(#StrokeMask)" stroke="#ffecd6" stroke-linecap="round" stroke-linejoin="round" stroke-width="32" xlink:href="#Fill"/>
</g>
<path d="M85.3 0L938.7 0C985.81 0 1024 38.1901 1024 85.3L1024 938.7C1024 985.81 985.81 1024 938.7 1024L85.3 1024C38.1901 1024 0 985.81 0 938.7L0 85.3C0 38.1901 38.1901 0 85.3 0Z" fill="#ffecd6" fill-rule="nonzero" opacity="0" stroke="none"/>
<path d="M85.3125 0C65.5756 0 47.422 6.74591 32.9688 18L43.9375 37L78.5938 37L95.9062 7L91.875 0L85.3125 0ZM151.906 0L147.875 7L165.188 37L199.812 37L217.156 7L213.125 0L151.906 0ZM273.125 0L269.094 7L286.406 37L321.062 37L338.375 7L334.344 0L273.125 0ZM394.375 0L390.344 7L407.656 37L442.312 37L459.625 7L455.594 0L394.375 0ZM515.625 0L511.594 7L528.906 37L563.531 37L580.875 7L576.844 0L515.625 0ZM636.844 0L632.812 7L650.125 37L684.781 37L702.094 7L698.062 0L636.844 0ZM758.094 0L754.062 7L771.375 37L806.031 37L823.344 7L819.312 0L758.094 0ZM879.344 0L875.312 7L892.625 37L927.25 37L944.594 7L940.594 0.09375C939.953 0.0795637 939.331 0 938.688 0L879.344 0ZM104.562 12L87.25 42L104.562 72L139.188 72L156.531 42L139.188 12L104.562 12ZM225.812 12L208.469 42L225.812 72L260.438 72L277.75 42L260.438 12L225.812 12ZM347.031 12L329.719 42L347.031 72L381.688 72L399 42L381.688 12L347.031 12ZM468.281 12L450.969 42L468.281 72L502.906 72L520.25 42L502.906 12L468.281 12ZM589.531 12L572.188 42L578.906 53.6562C583.931 51.3517 589.706 49.9177 596.844 50.0312C607.113 50.1946 617.522 55.9801 627.625 66.0312L641.469 42L624.156 12L589.531 12ZM710.75 12L693.438 42L710.75 72L745.406 72L762.719 42L745.406 12L710.75 12ZM832 12L814.688 42L832 72L866.656 72L883.969 42L866.656 12L832 12ZM953.25 12L935.906 42L953.25 72L987.875 72L1005.19 42L991.594 18.4375C988.621 16.083 985.462 13.9476 982.188 12L953.25 12ZM25.2812 24.6875C12.6566 37.189 4.00694 53.6385 1.125 72L17.9688 72L35.2812 42L25.2812 24.6875ZM43.9375 47L26.625 77L43.9375 107L78.5938 107L95.9062 77L78.5938 47L43.9375 47ZM165.188 47L147.875 77L165.188 107L199.812 107L217.156 77L199.812 47L165.188 47ZM286.406 47L269.094 77L286.406 107L321.062 107L338.375 77L321.062 47L286.406 47ZM407.656 47L395.281 68.4375C405.927 57.2779 416.951 50.8603 427.812 50.6875C435.648 50.5628 441.812 52.3318 447.031 55.1875L442.312 47L407.656 47ZM528.906 47L511.594 77L528.906 107L529 107C547.972 97.1938 554.154 72.3383 570.406 58.9062L563.531 47L528.906 47ZM650.125 47L634.656 73.7812C642.007 82.6887 649.067 94.0491 655.781 107L684.781 107L702.094 77L684.781 47L650.125 47ZM771.375 47L754.062 77L771.375 107L806.031 107L823.344 77L806.031 47L771.375 47ZM892.625 47L875.312 77L892.625 107L927.25 107L944.594 77L927.25 47L892.625 47ZM1013.88 47L996.531 77L1013.88 107L1024 107L1024 85.3125C1024 71.5189 1020.66 58.5295 1014.84 47L1013.88 47ZM0.15625 82C0.113588 83.108 0 84.194 0 85.3125L0 142L17.9688 142L35.2812 112L17.9688 82L0.15625 82ZM104.562 82L87.25 112L104.562 142L139.188 142L156.531 112L139.188 82L104.562 82ZM225.812 82L208.469 112L225.812 142L260.438 142L277.75 112L260.438 82L225.812 82ZM347.031 82L329.719 112L347.031 142L353.438 142C362.198 119.044 372.177 99.1854 382.781 83.9062L381.688 82L347.031 82ZM470.469 82C479.571 96.7702 488.984 111.214 511.125 111.219C514.079 111.219 516.804 110.954 519.344 110.469L502.906 82L470.469 82ZM710.75 82L693.438 112L710.75 142L745.406 142L762.719 112L745.406 82L710.75 82ZM832 82L814.688 112L832 142L866.656 142L883.969 112L866.656 82L832 82ZM953.25 82L935.906 112L953.25 142L987.875 142L1005.19 112L987.875 82L953.25 82ZM43.9375 117L26.625 147L43.9375 177L78.5938 177L95.9062 147L78.5938 117L43.9375 117ZM165.188 117L147.875 147L165.188 177L199.812 177L217.156 147L199.812 117L165.188 117ZM286.406 117L269.094 147L286.406 177L321.062 177L338.375 147L321.062 117L286.406 117ZM660.844 117C667.739 131.679 674.134 148.094 679.781 166C680.745 169.054 681.647 172.979 682.531 177L684.781 177L702.094 147L684.781 117L660.844 117ZM771.375 117L754.062 147L771.375 177L806.031 177L823.344 147L806.031 117L771.375 117ZM892.625 117L875.312 147L892.625 177L927.25 177L944.594 147L927.25 117L892.625 117ZM1013.88 117L996.531 147L1013.88 177L1024 177L1024 117L1013.88 117ZM0 152L0 212L17.9688 212L35.2812 182L17.9688 152L0 152ZM104.562 152L87.25 182L104.562 212L139.188 212L156.531 182L139.188 152L104.562 152ZM225.812 152L208.469 182L225.812 212L260.438 212L277.75 182L260.438 152L225.812 152ZM347.031 152L329.719 182L338.656 197.469C340.354 185.149 342.496 174.2 344.875 166.656C346.476 161.581 348.255 156.848 349.969 152L347.031 152ZM710.75 152L693.438 182L710.75 212L745.406 212L762.719 182L745.406 152L710.75 152ZM832 152L814.688 182L832 212L866.656 212L883.969 182L866.656 152L832 152ZM953.25 152L935.906 182L953.25 212L987.875 212L1005.19 182L987.875 152L953.25 152ZM43.9375 187L26.625 217L43.9375 247L78.5938 247L95.9062 217L78.5938 187L43.9375 187ZM165.188 187L147.875 217L165.188 247L199.812 247L217.156 217L199.812 187L165.188 187ZM286.406 187L269.094 217L286.406 247L321.062 247L336.281 220.625C336.441 218.457 336.524 216.267 336.719 214.125L321.062 187L286.406 187ZM684.438 187C687.097 202.401 688.993 221.03 689.344 239.125L702.094 217L684.781 187L684.438 187ZM771.375 187L754.062 217L771.375 247L806.031 247L823.344 217L806.031 187L771.375 187ZM892.625 187L875.312 217L892.625 247L927.25 247L944.594 217L927.25 187L892.625 187ZM1013.88 187L996.531 217L1013.88 247L1024 247L1024 187L1013.88 187ZM0 222L0 282L17.9688 282L35.2812 252L17.9688 222L0 222ZM104.562 222L87.25 252L104.562 282L139.188 282L156.531 252L139.188 222L104.562 222ZM225.812 222L208.469 252L225.812 282L260.438 282L277.75 252L260.438 222L225.812 222ZM710.75 222L693.438 252L710.75 282L745.406 282L762.719 252L745.406 222L710.75 222ZM832 222L814.688 252L832 282L866.656 282L883.969 252L866.656 222L832 222ZM953.25 222L935.906 252L953.25 282L987.875 282L1005.19 252L987.875 222L953.25 222ZM335.375 242.219L329.719 252L335.938 262.781C335.455 256.28 335.298 249.394 335.375 242.219ZM43.9375 257L26.625 287L43.9375 317L78.5938 317L95.9062 287L78.5938 257L43.9375 257ZM165.188 257L147.875 287L165.188 317L199.812 317L217.156 287L199.812 257L165.188 257ZM286.406 257L269.094 287L286.406 317L321.062 317L338.375 287L321.062 257L286.406 257ZM771.375 257L754.062 287L771.375 317L806.031 317L823.344 287L806.031 257L771.375 257ZM892.625 257L875.312 287L892.625 317L927.25 317L944.594 287L927.25 257L892.625 257ZM1013.88 257L996.531 287L1013.88 317L1024 317L1024 257L1013.88 257ZM688.562 263.562C687.316 278.817 684.54 291.554 679.125 297.156C674.411 303.29 663.312 308.837 648.188 313.656L650.125 317L684.781 317L702.094 287L688.562 263.562ZM0 292L0 352L17.9688 352L35.2812 322L17.9688 292L0 292ZM104.562 292L87.25 322L104.562 352L139.188 352L156.531 322L139.188 292L104.562 292ZM225.812 292L208.469 322L225.812 352L260.438 352L277.75 322L260.438 292L225.812 292ZM710.75 292L693.438 322L710.75 352L745.406 352L762.719 322L745.406 292L710.75 292ZM832 292L814.688 322L832 352L866.656 352L883.969 322L866.656 292L832 292ZM953.25 292L935.906 322L953.25 352L987.875 352L1005.19 322L987.875 292L953.25 292ZM344.438 296.5L329.719 322L347.031 352L381.688 352L399 322L397.5 319.406C370.721 313.612 351.541 305.881 344.844 297.094C344.701 296.924 344.567 296.706 344.438 296.5ZM638.344 316.594C621.079 321.139 599.554 324.751 575.125 327.062L589.531 352L624.156 352L641.469 322L638.344 316.594ZM43.9375 327L26.625 357L43.9375 387L78.5938 387L95.9062 357L78.5938 327L43.9375 327ZM165.188 327L147.875 357L165.188 387L199.812 387L217.156 357L199.812 327L165.188 327ZM286.406 327L269.094 357L280.031 375.938C296.158 373.493 313.409 371.394 331.188 369.469L338.375 357L321.062 327L286.406 327ZM407.656 327L390.344 357L407.656 387L442.312 387L459.625 357L442.312 327L407.656 327ZM650.125 327L632.812 357L650.125 387L653.688 387C669.126 381.493 679.078 375.05 681.344 368.094C686.01 368.559 690.215 369.186 694.781 369.688L702.094 357L684.781 327L650.125 327ZM771.375 327L754.062 357L767.188 379.719C780.023 381.981 792.152 384.421 803.562 387L806.031 387L823.344 357L806.031 327L771.375 327ZM892.625 327L875.312 357L892.625 387L927.25 387L944.594 357L927.25 327L892.625 327ZM1013.88 327L996.531 357L1013.88 387L1024 387L1024 327L1013.88 327ZM454.188 327.594L468.281 352L502.906 352L515.656 329.906C514.414 329.913 513.249 330 512 330C491.672 330 472.242 329.135 454.188 327.594ZM564.094 327.969C552.362 328.862 540.074 329.385 527.375 329.656L511.594 357L528.906 387L563.531 387L580.875 357L564.094 327.969ZM0 362L0 422L17.9688 422L35.2812 392L17.9688 362L0 362ZM104.562 362L87.25 392L104.562 422L127.094 422C132.071 418.247 138.242 414.615 145.5 411.094L156.531 392L139.188 362L104.562 362ZM225.812 362L210 389.375C227.843 385.021 247.776 381.071 269.406 377.562L260.438 362L225.812 362ZM347.031 362L343.062 368.875C347.213 379.009 367.378 388.004 397.562 394.5L399 392L381.688 362L347.031 362ZM468.281 362L450.969 392L457.156 402.719C474.427 404.112 492.712 405 512 405C512.257 405 512.494 404.969 512.75 404.969L520.25 392L502.906 362L468.281 362ZM589.531 362L572.188 392L577.844 401.812C602.453 399.369 623.741 395.56 640.812 390.844L624.156 362L589.531 362ZM710.75 362L705.562 370.969C722.442 372.964 739.073 375.027 754.344 377.5L745.406 362L710.75 362ZM832 362L815.906 389.875C839.138 395.63 858.819 402.032 874.188 408.969L883.969 392L866.656 362L832 362ZM953.25 362L935.906 392L953.25 422L987.875 422L1005.19 392L987.875 362L953.25 362ZM43.9375 397L26.625 427L43.9375 457L78.5938 457L95.9062 427L78.5938 397L43.9375 397ZM165.188 397L160.938 404.344C167.463 401.816 174.711 399.363 182.375 397L165.188 397ZM411.25 397C421.722 398.832 432.867 400.456 445 401.688L442.312 397L411.25 397ZM528.906 397L524.469 404.719C539.211 404.463 553.392 403.804 566.844 402.719L563.531 397L528.906 397ZM892.625 397L883.156 413.406C901.657 423.171 912 433.818 912 445C912 449.077 910.58 453.076 907.969 457L927.25 457L944.594 427L927.25 397L892.625 397ZM1013.88 397L996.531 427L1013.88 457L1024 457L1024 397L1013.88 397ZM0 432L0 492L17.9688 492L35.2812 462L17.9688 432L0 432ZM104.562 432L87.25 462L104.562 492L139.188 492L146.469 479.438C124.47 468.907 112 457.264 112 445C112 440.578 113.649 436.237 116.719 432L104.562 432ZM953.25 432L935.906 462L953.25 492L987.875 492L1005.19 462L987.875 432L953.25 432ZM43.9375 467L26.625 497L43.9375 527L78.5938 527L95.9062 497L78.5938 467L43.9375 467ZM898.406 467C895.631 469.207 892.446 471.368 888.875 473.5L875.312 497L892.625 527L927.25 527L944.594 497L927.25 467L898.406 467ZM1013.88 467L996.531 497L1013.88 527L1024 527L1024 467L1013.88 467ZM872.656 481.594C864.537 485.202 855.56 488.695 845.219 492L866.656 492L872.656 481.594ZM155.656 483.5L147.875 497L165.188 527L199.812 527L214.469 501.656C191.349 496.179 171.518 490.119 155.656 483.5ZM822.438 498.562C804.563 503.235 784.37 507.477 762.281 511.25L771.375 527L806.031 527L822.438 498.562ZM0 502L0 562L17.9688 562L35.2812 532L17.9688 502L0 502ZM104.562 502L87.25 532L104.562 562L139.188 562L156.531 532L139.188 502L104.562 502ZM832 502L814.688 532L832 562L866.656 562L883.969 532L866.656 502L832 502ZM953.25 502L935.906 532L953.25 562L987.875 562L1005.19 532L987.875 502L953.25 502ZM224.625 504.031L208.469 532L211.062 536.5C213.501 537.08 227.481 540.373 245.25 542.562C253.886 543.627 262.843 544.299 270.375 544.781L277.75 532L266.188 511.969C251.486 509.528 237.576 506.877 224.625 504.031ZM751.719 512.938C735.451 515.534 718.432 517.916 700.375 519.969L693.438 532L704.375 550.938C704.211 548.36 704 544.406 704 544.406C704 544.406 715.34 546.477 747.719 542.344C751.755 541.828 754.354 541.282 757.656 540.75L762.719 532L751.719 512.938ZM278.875 513.969L286.406 527L321.062 527L325.031 520.125C308.915 518.31 293.589 516.218 278.875 513.969ZM688.125 521.219C675.392 522.55 662.296 523.739 648.844 524.781L650.125 527L684.781 527L688.125 521.219ZM335.938 521.25L329.719 532L347.031 562L381.688 562L399 532L395.719 526.344C374.967 525.005 355.11 523.254 335.938 521.25ZM637.812 525.656C617.237 527.106 595.906 528.149 574 528.875L572.188 532L589.531 562L624.156 562L641.469 532L637.812 525.656ZM452.719 528.969L450.969 532L468.281 562L502.906 562L520.25 532L519.062 529.938C516.689 529.946 514.384 530 512 530C491.805 530 472.109 529.583 452.719 528.969ZM43.9375 537L26.625 567L43.9375 597L78.5938 597L95.9062 567L78.5938 537L43.9375 537ZM165.188 537L147.875 567L158.75 585.875C181.827 565.368 196.515 549.835 203.094 542.688L199.812 537L165.188 537ZM286.406 537L281.562 545.406C283.038 545.466 286.781 545.656 286.781 545.656C286.781 545.656 293.054 565.922 308.938 597L321.062 597L338.375 567L321.062 537L286.406 537ZM407.656 537L390.344 567L407.656 597L442.312 597L459.625 567L442.312 537L407.656 537ZM528.906 537L511.594 567L528.906 597L563.531 597L580.875 567L563.531 537L528.906 537ZM650.125 537L632.812 567L650.125 597L684.781 597L702.094 567L684.781 537L650.125 537ZM771.375 537L770.531 538.469C772.859 537.956 774.897 537.472 776.656 537L771.375 537ZM792.062 537C795.395 540.03 803.809 547.517 819.344 560.094L806.031 537L792.062 537ZM892.625 537L875.312 567L892.625 597L927.25 597L944.594 567L927.25 537L892.625 537ZM1013.88 537L996.531 567L1013.88 597L1024 597L1024 537L1013.88 537ZM0 572L0 632L17.9688 632L35.2812 602L17.9688 572L0 572ZM104.562 572L87.25 602L103.844 630.75C116.818 620.841 133.066 608.012 151.062 592.531L139.188 572L104.562 572ZM347.031 572L329.719 602L347.031 632L381.688 632L399 602L381.688 572L347.031 572ZM468.281 572L450.969 602L468.281 632L502.906 632L520.25 602L502.906 572L468.281 572ZM589.531 572L572.188 602L589.531 632L624.156 632L641.469 602L624.156 572L589.531 572ZM834.5 572C841.126 577.095 847.843 582.25 855.312 587.562C863.929 593.692 873.005 599.752 881.906 605.594L883.969 602L866.656 572L834.5 572ZM953.25 572L935.906 602L953.25 632L987.875 632L1005.19 602L987.875 572L953.25 572ZM700.875 589.125L693.438 602L695.938 606.344C697.693 601.201 699.384 595.317 700.875 589.125ZM43.9375 607L26.625 637L43.9375 667L78.5938 667L91.4375 644.719C89.7127 644.523 86.2188 644.125 86.2188 644.125C86.2188 644.125 92.9376 638.999 95.8125 636.844L78.5938 607L43.9375 607ZM314.219 607C320.132 617.951 326.895 629.671 335.188 642.531L338.375 637L321.062 607L314.219 607ZM407.656 607L390.344 637L407.656 667L442.312 667L459.625 637L442.312 607L407.656 607ZM528.906 607L511.594 637L528.906 667L563.531 667L580.875 637L563.531 607L528.906 607ZM650.125 607L632.812 637L644.5 657.25C673.008 631.737 690.281 621.437 690.281 621.438C690.281 621.438 691.191 619.014 691.406 618.5L684.781 607L650.125 607ZM892.625 607L890.281 611.031C917.544 628.583 941.313 642.469 941.312 642.469C941.312 642.469 931.233 642.516 883.562 651.281L892.625 667L927.25 667L944.594 637L927.25 607L892.625 607ZM1013.88 607L996.531 637L1013.88 667L1024 667L1024 607L1013.88 607ZM0 642L0 702L17.9688 702L35.2812 672L17.9688 642L0 642ZM347.031 642L341.312 651.906C351.267 666.692 362.8 682.34 376.188 698.5C377.235 699.764 378.181 700.76 379.219 702L381.688 702L399 672L381.688 642L347.031 642ZM468.281 642L450.969 672L468.281 702L502.906 702L520.25 672L502.906 642L468.281 642ZM589.531 642L572.188 672L589.531 702L599.438 702C613.211 687.114 625.834 674.376 636.906 664.094L624.156 642L589.531 642ZM953.25 642L935.906 672L953.25 702L987.875 702L1005.19 672L987.875 642L953.25 642ZM102.219 646.062L87.25 672L104.562 702L139.188 702L156.531 672L145.156 652.344C127.834 649.574 112.77 647.389 102.219 646.062ZM873.188 653.281C858.31 656.085 841.292 659.396 819.344 663.906L814.688 672L832 702L866.656 702L883.969 672L873.188 653.281ZM157.906 654.375L165.188 667L199.812 667L202.094 663.062C187.334 659.701 172.392 656.864 157.906 654.375ZM212.219 665.5L208.469 672L225.812 702L260.438 702L271.531 682.781C255.407 677.364 234.935 671.076 212.219 665.5ZM43.9375 677L26.625 707L43.9375 737L78.5938 737L95.9062 707L78.5938 677L43.9375 677ZM165.188 677L147.875 707L165.188 737L199.812 737L217.156 707L199.812 677L165.188 677ZM407.656 677L390.344 707L403.719 730.156C405.93 732.592 407.943 734.683 410.094 737L442.312 737L459.625 707L442.312 677L407.656 677ZM528.906 677L511.594 707L528.906 737L563.531 737L580.875 707L563.531 677L528.906 677ZM771.375 677L754.062 707L771.375 737L806.031 737L823.344 707L806.031 677L771.375 677ZM892.625 677L875.312 707L892.625 737L927.25 737L944.594 707L927.25 677L892.625 677ZM1013.88 677L996.531 707L1013.88 737L1024 737L1024 677L1013.88 677ZM758.906 678.594C730.575 686.896 715.928 693.882 708.75 698.562L710.75 702L745.406 702L758.906 678.594ZM281.156 686.094L269.094 707L277.125 720.906C293.143 706.764 305.063 694.875 305.062 694.875C305.062 694.875 295.336 691.078 281.156 686.094ZM0 712L0 772L17.9688 772L35.2812 742L17.9688 712L0 712ZM104.562 712L87.25 742L104.562 772L139.188 772L156.531 742L139.188 712L104.562 712ZM225.812 712L208.469 742L225.812 772L248.156 772C234.475 767.153 224.156 763.625 224.156 763.625C224.156 763.625 248.65 745.313 268.875 728.125C269.077 727.954 269.237 727.796 269.438 727.625L260.438 712L225.812 712ZM468.281 712L450.969 742L468.281 772L502.906 772L520.25 742L502.906 712L468.281 712ZM589.531 712L588.25 714.219C588.952 713.428 589.584 712.779 590.281 712L589.531 712ZM710.75 712L710.562 712.344C716.592 716.645 726.158 722.708 742.688 731.188C750.036 734.957 755.996 737.63 761.656 740.125L745.406 712L710.75 712ZM832 712L814.688 742L832 772L866.656 772L883.969 742L866.656 712L832 712ZM953.25 712L935.906 742L953.25 772L987.875 772L1005.19 742L987.875 712L953.25 712ZM43.9375 747L26.625 777L43.9375 807L78.5938 807L95.9062 777L78.5938 747L43.9375 747ZM165.188 747L147.875 777L165.188 807L199.812 807L217.156 777L199.812 747L165.188 747ZM419.438 747C433.403 761.557 445.727 773.395 456.25 782.844L459.625 777L442.312 747L419.438 747ZM528.906 747L511.594 777L524.844 799.969C533.185 784.338 543.106 768.57 555.438 753.094C557.128 750.972 558.738 749.06 560.406 747L528.906 747ZM778.656 747C788.57 750.445 793.625 751.25 793.625 751.25C793.625 751.25 783.915 751.753 766.281 755.844L754.062 777L771.375 807L806.031 807L823.344 777L806.031 747L778.656 747ZM892.625 747L875.312 777L892.625 807L927.25 807L944.594 777L927.25 747L892.625 747ZM1013.88 747L996.531 777L1013.88 807L1024 807L1024 747L1013.88 747ZM752.656 759.438C741.982 762.42 729.674 766.378 715.281 772L745.406 772L752.656 759.438ZM701.781 777.531C685.725 784.374 667.852 793.001 648.312 803.875L650.125 807L684.781 807L701.781 777.531ZM271 780.281L286.406 807L321.062 807L324.312 801.375C305.123 793.323 286.847 786.186 271 780.281ZM0 782L0 842L17.9688 842L35.2812 812L17.9688 782L0 782ZM104.562 782L87.25 812L104.562 842L139.188 842L156.531 812L139.188 782L104.562 782ZM225.812 782L208.469 812L225.812 842L260.438 842L277.75 812L260.438 782L225.812 782ZM468.281 782L463.906 789.594C482.473 805.656 493.594 813.094 493.594 813.094C493.594 813.094 484.814 830.466 481.969 842L502.906 842L512.969 824.562C514.972 819.865 517.029 815.166 519.344 810.406L502.906 782L468.281 782ZM710.75 782L693.438 812L710.75 842L745.406 842L762.719 812L745.406 782L710.75 782ZM832 782L814.688 812L832 842L866.656 842L883.969 812L866.656 782L832 782ZM953.25 782L935.906 812L953.25 842L987.875 842L1005.19 812L987.875 782L953.25 782ZM333.625 805.25L329.719 812L347.031 842L381.688 842L388.156 830.812C378.008 825.682 367.599 820.538 356.812 815.562C349.131 812.02 341.365 808.579 333.625 805.25ZM639.625 808.781C634.567 811.698 629.478 814.655 624.219 817.875C611.582 825.612 600.041 833.659 589.438 841.812L589.531 842L624.156 842L641.469 812L639.625 808.781ZM43.9375 817L26.625 847L43.9375 877L78.5938 877L95.9062 847L78.5938 817L43.9375 817ZM165.188 817L147.875 847L165.188 877L199.812 877L217.156 847L199.812 817L165.188 817ZM286.406 817L269.094 847L286.406 877L321.062 877L338.375 847L321.062 817L286.406 817ZM650.125 817L632.812 847L650.125 877L684.781 877L702.094 847L684.781 817L650.125 817ZM771.375 817L754.062 847L771.375 877L806.031 877L823.344 847L806.031 817L771.375 817ZM892.625 817L875.312 847L892.625 877L927.25 877L944.594 847L927.25 817L892.625 817ZM1013.88 817L996.531 847L1013.88 877L1024 877L1024 817L1013.88 817ZM397.062 835.344L390.344 847L407.656 877L442.312 877L449.688 864.188C435.735 856.101 418.335 846.335 397.062 835.344ZM579 850.25C568.159 859.205 558.431 868.167 549.781 877L563.531 877L579 850.25ZM0 852L0 912L17.9688 912L35.2812 882L17.9688 852L0 852ZM104.562 852L87.25 882L104.562 912L139.188 912L156.531 882L139.188 852L104.562 852ZM225.812 852L208.469 882L225.812 912L260.438 912L277.75 882L260.438 852L225.812 852ZM347.031 852L329.719 882L347.031 912L381.688 912L399 882L381.688 852L347.031 852ZM480 852C477.977 864.309 476.188 879.875 476.188 879.875C476.188 879.875 468.642 875.298 458.344 869.219L450.969 882L468.281 912L489.281 912C491.486 894.642 495.606 874.074 502.719 852L480 852ZM589.531 852L572.188 882L589.531 912L624.156 912L641.469 882L624.156 852L589.531 852ZM710.75 852L693.438 882L710.75 912L745.406 912L762.719 882L745.406 852L710.75 852ZM832 852L814.688 882L832 912L866.656 912L883.969 882L866.656 852L832 852ZM953.25 852L935.906 882L953.25 912L987.875 912L1005.19 882L987.875 852L953.25 852ZM43.9375 887L26.625 917L43.9375 947L78.5938 947L95.9062 917L78.5938 887L43.9375 887ZM165.188 887L147.875 917L165.188 947L199.812 947L217.156 917L199.812 887L165.188 887ZM286.406 887L269.094 917L286.406 947L321.062 947L338.375 917L321.062 887L286.406 887ZM407.656 887L390.344 917L407.656 947L442.312 947L459.625 917L442.312 887L407.656 887ZM540.375 887C529.61 898.855 520.714 910.146 513.531 920.344L528.906 947L563.531 947L580.875 917L563.531 887L540.375 887ZM650.125 887L632.812 917L650.125 947L684.781 947L702.094 917L684.781 887L650.125 887ZM771.375 887L754.062 917L771.375 947L806.031 947L823.344 917L806.031 887L771.375 887ZM892.625 887L875.312 917L892.625 947L927.25 947L944.594 917L927.25 887L892.625 887ZM1013.88 887L996.531 917L1013.88 947L1023.59 947C1023.86 944.263 1024 941.494 1024 938.688L1024 887L1013.88 887ZM0 922L0 938.688C0 954.519 4.39086 969.294 11.9062 982L17.9688 982L35.2812 952L17.9688 922L0 922ZM104.562 922L87.25 952L104.562 982L139.188 982L156.531 952L139.188 922L104.562 922ZM225.812 922L208.469 952L225.812 982L260.438 982L277.75 952L260.438 922L225.812 922ZM347.031 922L329.719 952L347.031 982L381.688 982L399 952L381.688 922L347.031 922ZM468.281 922L450.969 952L468.281 982L502.906 982L520.25 952L507.281 929.531C493.137 951.175 487.313 965.875 487.312 965.875C487.312 965.875 485.635 948.71 488.188 922L468.281 922ZM589.531 922L572.188 952L589.531 982L624.156 982L641.469 952L624.156 922L589.531 922ZM710.75 922L693.438 952L710.75 982L745.406 982L762.719 952L745.406 922L710.75 922ZM832 922L814.688 952L832 982L866.656 982L883.969 952L866.656 922L832 922ZM953.25 922L935.906 952L953.25 982L987.875 982L1005.19 952L987.875 922L953.25 922ZM43.9375 957L26.625 987L40.625 1011.28C44.1051 1013.43 47.7118 1015.36 51.5 1017L78.5938 1017L95.9062 987L78.5938 957L43.9375 957ZM165.188 957L147.875 987L165.188 1017L199.812 1017L217.156 987L199.812 957L165.188 957ZM286.406 957L269.094 987L286.406 1017L321.062 1017L338.375 987L321.062 957L286.406 957ZM407.656 957L390.344 987L407.656 1017L442.312 1017L459.625 987L442.312 957L407.656 957ZM528.906 957L511.594 987L528.906 1017L563.531 1017L580.875 987L563.531 957L528.906 957ZM650.125 957L632.812 987L650.125 1017L684.781 1017L702.094 987L684.781 957L650.125 957ZM771.375 957L754.062 987L771.375 1017L806.031 1017L823.344 987L806.031 957L771.375 957ZM892.625 957L875.312 987L892.625 1017L927.25 1017L944.594 987L927.25 957L892.625 957ZM1013.88 957L996.531 987L1001.75 996.031C1011.62 985.187 1018.75 971.842 1022 957L1013.88 957ZM104.562 992L87.25 1022L88.4062 1024L155.375 1024L156.531 1022L139.188 992L104.562 992ZM225.812 992L208.469 1022L209.625 1024L276.594 1024L277.75 1022L260.438 992L225.812 992ZM347.031 992L329.719 1022L330.875 1024L397.844 1024L399 1022L381.688 992L347.031 992ZM468.281 992L450.969 1022L452.125 1024L519.094 1024L520.25 1022L502.906 992L468.281 992ZM589.531 992L572.188 1022L573.344 1024L640.312 1024L641.469 1022L624.156 992L589.531 992ZM710.75 992L693.438 1022L694.594 1024L761.562 1024L762.719 1022L745.406 992L710.75 992ZM832 992L814.688 1022L815.844 1024L882.812 1024L883.969 1022L866.656 992L832 992ZM953.25 992L935.906 1022L937.062 1024L938.688 1024C959.982 1024 979.429 1016.15 994.375 1003.25L987.875 992L953.25 992Z" fill="#0d2b45" fill-rule="nonzero" opacity="0" stroke="none"/>
<g opacity="0">
<mask height="1024" id="StrokeMask_2" maskUnits="userSpaceOnUse" width="1024" x="0" y="0">
<rect fill="#000000" height="1024" stroke="none" width="1024" x="0" y="0"/>
<use fill="#ffffff" fill-rule="evenodd" stroke="none" xlink:href="#Fill_2"/>
</mask>
<use fill="none" mask="url(#StrokeMask_2)" stroke="#ffecd6" stroke-linecap="round" stroke-linejoin="round" stroke-width="32" xlink:href="#Fill_2"/>
</g>
<path d="M180 0L844 0C943.411 0 1024 80.5887 1024 180L1024 844C1024 943.411 943.411 1024 844 1024L180 1024C80.5887 1024 0 943.411 0 844L0 180C0 80.5887 80.5887 0 180 0Z" fill="#ffecd6" fill-rule="nonzero" opacity="0" stroke="none"/>
<path d="M180 0C169.887 0 160.034 1.05316 150.375 2.65625L147.875 7L165.188 37L199.812 37L217.156 7L213.125 0L180 0ZM273.125 0L269.094 7L286.406 37L321.062 37L338.375 7L334.344 0L273.125 0ZM394.375 0L390.344 7L407.656 37L442.312 37L459.625 7L455.594 0L394.375 0ZM515.625 0L511.594 7L528.906 37L563.531 37L580.875 7L576.844 0L515.625 0ZM636.844 0L632.812 7L650.125 37L684.781 37L702.094 7L698.062 0L636.844 0ZM758.094 0L754.062 7L771.375 37L806.031 37L823.344 7L819.312 0L758.094 0ZM877.5 3.21875L875.312 7L892.625 37L927.25 37L934.438 24.5312C917.076 14.4092 897.927 7.06748 877.5 3.21875ZM115.812 12C110.681 13.9624 105.675 16.1562 100.781 18.5625L87.25 42L104.562 72L139.188 72L156.531 42L139.188 12L115.812 12ZM225.812 12L208.469 42L225.812 72L260.438 72L277.75 42L260.438 12L225.812 12ZM347.031 12L329.719 42L347.031 72L381.688 72L399 42L381.688 12L347.031 12ZM468.281 12L450.969 42L468.281 72L502.906 72L520.25 42L502.906 12L468.281 12ZM589.531 12L572.188 42L578.906 53.6562C583.931 51.3517 589.706 49.9177 596.844 50.0312C607.113 50.1946 617.522 55.9801 627.625 66.0312L641.469 42L624.156 12L589.531 12ZM710.75 12L693.438 42L710.75 72L745.406 72L762.719 42L745.406 12L710.75 12ZM832 12L814.688 42L832 72L866.656 72L883.969 42L866.656 12L832 12ZM83.7188 28.0938C79.3372 30.877 75.1137 33.8593 71 37L78.5938 37L83.7188 28.0938ZM943 29.75L935.906 42L953.25 72L987.75 72C975.337 55.5058 960.262 41.1479 943 29.75ZM59 47C47.7236 57.2654 37.722 68.8758 29.3438 81.6875L43.9375 107L78.5938 107L95.9062 77L78.5938 47L59 47ZM165.188 47L147.875 77L165.188 107L199.812 107L217.156 77L199.812 47L165.188 47ZM286.406 47L269.094 77L286.406 107L321.062 107L338.375 77L321.062 47L286.406 47ZM407.656 47L395.281 68.4375C405.927 57.2779 416.951 50.8603 427.812 50.6875C435.648 50.5628 441.812 52.3318 447.031 55.1875L442.312 47L407.656 47ZM528.906 47L511.594 77L528.906 107L529 107C547.972 97.1938 554.154 72.3383 570.406 58.9062L563.531 47L528.906 47ZM650.125 47L634.656 73.7812C642.007 82.6887 649.067 94.0491 655.781 107L684.781 107L702.094 77L684.781 47L650.125 47ZM771.375 47L754.062 77L771.375 107L806.031 107L823.344 77L806.031 47L771.375 47ZM892.625 47L875.312 77L892.625 107L927.25 107L944.594 77L927.25 47L892.625 47ZM104.562 82L87.25 112L104.562 142L139.188 142L156.531 112L139.188 82L104.562 82ZM225.812 82L208.469 112L225.812 142L260.438 142L277.75 112L260.438 82L225.812 82ZM347.031 82L329.719 112L347.031 142L353.438 142C362.198 119.044 372.177 99.1854 382.781 83.9062L381.688 82L347.031 82ZM470.469 82C479.571 96.7702 488.984 111.214 511.125 111.219C514.079 111.219 516.804 110.954 519.344 110.469L502.906 82L470.469 82ZM710.75 82L693.438 112L710.75 142L745.406 142L762.719 112L745.406 82L710.75 82ZM832 82L814.688 112L832 142L866.656 142L883.969 112L866.656 82L832 82ZM953.25 82L935.906 112L953.25 142L987.875 142L1005.19 112L987.875 82L953.25 82ZM23.4062 91.4062C14.5739 106.984 7.9704 123.973 4.09375 142L17.9688 142L35.2812 112L23.4062 91.4062ZM43.9375 117L26.625 147L43.9375 177L78.5938 177L95.9062 147L78.5938 117L43.9375 117ZM165.188 117L147.875 147L165.188 177L199.812 177L217.156 147L199.812 117L165.188 117ZM286.406 117L269.094 147L286.406 177L321.062 177L338.375 147L321.062 117L286.406 117ZM660.844 117C667.739 131.679 674.134 148.094 679.781 166C680.745 169.054 681.647 172.979 682.531 177L684.781 177L702.094 147L684.781 117L660.844 117ZM771.375 117L754.062 147L771.375 177L806.031 177L823.344 147L806.031 117L771.375 117ZM892.625 117L875.312 147L892.625 177L927.25 177L944.594 147L927.25 117L892.625 117ZM1013 118.531L996.531 147L1013.88 177L1023.84 177C1023.5 156.471 1019.66 136.838 1013 118.531ZM2.40625 152C0.974036 161.146 0 170.452 0 180L0 212L17.9688 212L35.2812 182L17.9688 152L2.40625 152ZM104.562 152L87.25 182L104.562 212L139.188 212L156.531 182L139.188 152L104.562 152ZM225.812 152L208.469 182L225.812 212L260.438 212L277.75 182L260.438 152L225.812 152ZM347.031 152L329.719 182L338.656 197.469C340.354 185.149 342.496 174.2 344.875 166.656C346.476 161.581 348.255 156.848 349.969 152L347.031 152ZM710.75 152L693.438 182L710.75 212L745.406 212L762.719 182L745.406 152L710.75 152ZM832 152L814.688 182L832 212L866.656 212L883.969 182L866.656 152L832 152ZM953.25 152L935.906 182L953.25 212L987.875 212L1005.19 182L987.875 152L953.25 152ZM43.9375 187L26.625 217L43.9375 247L78.5938 247L95.9062 217L78.5938 187L43.9375 187ZM165.188 187L147.875 217L165.188 247L199.812 247L217.156 217L199.812 187L165.188 187ZM286.406 187L269.094 217L286.406 247L321.062 247L336.281 220.625C336.441 218.457 336.524 216.267 336.719 214.125L321.062 187L286.406 187ZM684.438 187C687.097 202.401 688.993 221.03 689.344 239.125L702.094 217L684.781 187L684.438 187ZM771.375 187L754.062 217L771.375 247L806.031 247L823.344 217L806.031 187L771.375 187ZM892.625 187L875.312 217L892.625 247L927.25 247L944.594 217L927.25 187L892.625 187ZM1013.88 187L996.531 217L1013.88 247L1024 247L1024 187L1013.88 187ZM0 222L0 282L17.9688 282L35.2812 252L17.9688 222L0 222ZM104.562 222L87.25 252L104.562 282L139.188 282L156.531 252L139.188 222L104.562 222ZM225.812 222L208.469 252L225.812 282L260.438 282L277.75 252L260.438 222L225.812 222ZM710.75 222L693.438 252L710.75 282L745.406 282L762.719 252L745.406 222L710.75 222ZM832 222L814.688 252L832 282L866.656 282L883.969 252L866.656 222L832 222ZM953.25 222L935.906 252L953.25 282L987.875 282L1005.19 252L987.875 222L953.25 222ZM335.375 242.219L329.719 252L335.938 262.781C335.455 256.28 335.298 249.394 335.375 242.219ZM43.9375 257L26.625 287L43.9375 317L78.5938 317L95.9062 287L78.5938 257L43.9375 257ZM165.188 257L147.875 287L165.188 317L199.812 317L217.156 287L199.812 257L165.188 257ZM286.406 257L269.094 287L286.406 317L321.062 317L338.375 287L321.062 257L286.406 257ZM771.375 257L754.062 287L771.375 317L806.031 317L823.344 287L806.031 257L771.375 257ZM892.625 257L875.312 287L892.625 317L927.25 317L944.594 287L927.25 257L892.625 257ZM1013.88 257L996.531 287L1013.88 317L1024 317L1024 257L1013.88 257ZM688.562 263.562C687.316 278.817 684.54 291.554 679.125 297.156C674.411 303.29 663.312 308.837 648.188 313.656L650.125 317L684.781 317L702.094 287L688.562 263.562ZM0 292L0 352L17.9688 352L35.2812 322L17.9688 292L0 292ZM104.562 292L87.25 322L104.562 352L139.188 352L156.531 322L139.188 292L104.562 292ZM225.812 292L208.469 322L225.812 352L260.438 352L277.75 322L260.438 292L225.812 292ZM710.75 292L693.438 322L710.75 352L745.406 352L762.719 322L745.406 292L710.75 292ZM832 292L814.688 322L832 352L866.656 352L883.969 322L866.656 292L832 292ZM953.25 292L935.906 322L953.25 352L987.875 352L1005.19 322L987.875 292L953.25 292ZM344.438 296.5L329.719 322L347.031 352L381.688 352L399 322L397.5 319.406C370.721 313.612 351.541 305.881 344.844 297.094C344.701 296.924 344.567 296.706 344.438 296.5ZM638.344 316.594C621.079 321.139 599.554 324.751 575.125 327.062L589.531 352L624.156 352L641.469 322L638.344 316.594ZM43.9375 327L26.625 357L43.9375 387L78.5938 387L95.9062 357L78.5938 327L43.9375 327ZM165.188 327L147.875 357L165.188 387L199.812 387L217.156 357L199.812 327L165.188 327ZM286.406 327L269.094 357L280.031 375.938C296.158 373.493 313.409 371.394 331.188 369.469L338.375 357L321.062 327L286.406 327ZM407.656 327L390.344 357L407.656 387L442.312 387L459.625 357L442.312 327L407.656 327ZM650.125 327L632.812 357L650.125 387L653.688 387C669.126 381.493 679.078 375.05 681.344 368.094C686.01 368.559 690.215 369.186 694.781 369.688L702.094 357L684.781 327L650.125 327ZM771.375 327L754.062 357L767.188 379.719C780.023 381.981 792.152 384.421 803.562 387L806.031 387L823.344 357L806.031 327L771.375 327ZM892.625 327L875.312 357L892.625 387L927.25 387L944.594 357L927.25 327L892.625 327ZM1013.88 327L996.531 357L1013.88 387L1024 387L1024 327L1013.88 327ZM454.188 327.594L468.281 352L502.906 352L515.656 329.906C514.414 329.913 513.249 330 512 330C491.672 330 472.242 329.135 454.188 327.594ZM564.094 327.969C552.362 328.862 540.074 329.385 527.375 329.656L511.594 357L528.906 387L563.531 387L580.875 357L564.094 327.969ZM0 362L0 422L17.9688 422L35.2812 392L17.9688 362L0 362ZM104.562 362L87.25 392L104.562 422L127.094 422C132.071 418.247 138.242 414.615 145.5 411.094L156.531 392L139.188 362L104.562 362ZM225.812 362L210 389.375C227.843 385.021 247.776 381.071 269.406 377.562L260.438 362L225.812 362ZM347.031 362L343.062 368.875C347.213 379.009 367.378 388.004 397.562 394.5L399 392L381.688 362L347.031 362ZM468.281 362L450.969 392L457.156 402.719C474.427 404.112 492.712 405 512 405C512.257 405 512.494 404.969 512.75 404.969L520.25 392L502.906 362L468.281 362ZM589.531 362L572.188 392L577.844 401.812C602.453 399.369 623.741 395.56 640.812 390.844L624.156 362L589.531 362ZM710.75 362L705.562 370.969C722.442 372.964 739.073 375.027 754.344 377.5L745.406 362L710.75 362ZM832 362L815.906 389.875C839.138 395.63 858.819 402.032 874.188 408.969L883.969 392L866.656 362L832 362ZM953.25 362L935.906 392L953.25 422L987.875 422L1005.19 392L987.875 362L953.25 362ZM43.9375 397L26.625 427L43.9375 457L78.5938 457L95.9062 427L78.5938 397L43.9375 397ZM165.188 397L160.938 404.344C167.463 401.816 174.711 399.363 182.375 397L165.188 397ZM411.25 397C421.722 398.832 432.867 400.456 445 401.688L442.312 397L411.25 397ZM528.906 397L524.469 404.719C539.211 404.463 553.392 403.804 566.844 402.719L563.531 397L528.906 397ZM892.625 397L883.156 413.406C901.657 423.171 912 433.818 912 445C912 449.077 910.58 453.076 907.969 457L927.25 457L944.594 427L927.25 397L892.625 397ZM1013.88 397L996.531 427L1013.88 457L1024 457L1024 397L1013.88 397ZM0 432L0 492L17.9688 492L35.2812 462L17.9688 432L0 432ZM104.562 432L87.25 462L104.562 492L139.188 492L146.469 479.438C124.47 468.907 112 457.264 112 445C112 440.578 113.649 436.237 116.719 432L104.562 432ZM953.25 432L935.906 462L953.25 492L987.875 492L1005.19 462L987.875 432L953.25 432ZM43.9375 467L26.625 497L43.9375 527L78.5938 527L95.9062 497L78.5938 467L43.9375 467ZM898.406 467C895.631 469.207 892.446 471.368 888.875 473.5L875.312 497L892.625 527L927.25 527L944.594 497L927.25 467L898.406 467ZM1013.88 467L996.531 497L1013.88 527L1024 527L1024 467L1013.88 467ZM872.656 481.594C864.537 485.202 855.56 488.695 845.219 492L866.656 492L872.656 481.594ZM155.656 483.5L147.875 497L165.188 527L199.812 527L214.469 501.656C191.349 496.179 171.518 490.119 155.656 483.5ZM822.438 498.562C804.563 503.235 784.37 507.477 762.281 511.25L771.375 527L806.031 527L822.438 498.562ZM0 502L0 562L17.9688 562L35.2812 532L17.9688 502L0 502ZM104.562 502L87.25 532L104.562 562L139.188 562L156.531 532L139.188 502L104.562 502ZM832 502L814.688 532L832 562L866.656 562L883.969 532L866.656 502L832 502ZM953.25 502L935.906 532L953.25 562L987.875 562L1005.19 532L987.875 502L953.25 502ZM224.625 504.031L208.469 532L211.062 536.5C213.501 537.08 227.481 540.373 245.25 542.562C253.886 543.627 262.843 544.299 270.375 544.781L277.75 532L266.188 511.969C251.486 509.528 237.576 506.877 224.625 504.031ZM751.719 512.938C735.451 515.534 718.432 517.916 700.375 519.969L693.438 532L704.375 550.938C704.211 548.36 704 544.406 704 544.406C704 544.406 715.34 546.477 747.719 542.344C751.755 541.828 754.354 541.282 757.656 540.75L762.719 532L751.719 512.938ZM278.875 513.969L286.406 527L321.062 527L325.031 520.125C308.915 518.31 293.589 516.218 278.875 513.969ZM688.125 521.219C675.392 522.55 662.296 523.739 648.844 524.781L650.125 527L684.781 527L688.125 521.219ZM335.938 521.25L329.719 532L347.031 562L381.688 562L399 532L395.719 526.344C374.967 525.005 355.11 523.254 335.938 521.25ZM637.812 525.656C617.237 527.106 595.906 528.149 574 528.875L572.188 532L589.531 562L624.156 562L641.469 532L637.812 525.656ZM452.719 528.969L450.969 532L468.281 562L502.906 562L520.25 532L519.062 529.938C516.689 529.946 514.384 530 512 530C491.805 530 472.109 529.583 452.719 528.969ZM43.9375 537L26.625 567L43.9375 597L78.5938 597L95.9062 567L78.5938 537L43.9375 537ZM165.188 537L147.875 567L158.75 585.875C181.827 565.368 196.515 549.835 203.094 542.688L199.812 537L165.188 537ZM286.406 537L281.562 545.406C283.038 545.466 286.781 545.656 286.781 545.656C286.781 545.656 293.054 565.922 308.938 597L321.062 597L338.375 567L321.062 537L286.406 537ZM407.656 537L390.344 567L407.656 597L442.312 597L459.625 567L442.312 537L407.656 537ZM528.906 537L511.594 567L528.906 597L563.531 597L580.875 567L563.531 537L528.906 537ZM650.125 537L632.812 567L650.125 597L684.781 597L702.094 567L684.781 537L650.125 537ZM771.375 537L770.531 538.469C772.859 537.956 774.897 537.472 776.656 537L771.375 537ZM792.062 537C795.395 540.03 803.809 547.517 819.344 560.094L806.031 537L792.062 537ZM892.625 537L875.312 567L892.625 597L927.25 597L944.594 567L927.25 537L892.625 537ZM1013.88 537L996.531 567L1013.88 597L1024 597L1024 537L1013.88 537ZM0 572L0 632L17.9688 632L35.2812 602L17.9688 572L0 572ZM104.562 572L87.25 602L103.844 630.75C116.818 620.841 133.066 608.012 151.062 592.531L139.188 572L104.562 572ZM347.031 572L329.719 602L347.031 632L381.688 632L399 602L381.688 572L347.031 572ZM468.281 572L450.969 602L468.281 632L502.906 632L520.25 602L502.906 572L468.281 572ZM589.531 572L572.188 602L589.531 632L624.156 632L641.469 602L624.156 572L589.531 572ZM834.5 572C841.126 577.095 847.843 582.25 855.312 587.562C863.929 593.692 873.005 599.752 881.906 605.594L883.969 602L866.656 572L834.5 572ZM953.25 572L935.906 602L953.25 632L987.875 632L1005.19 602L987.875 572L953.25 572ZM700.875 589.125L693.438 602L695.938 606.344C697.693 601.201 699.384 595.317 700.875 589.125ZM43.9375 607L26.625 637L43.9375 667L78.5938 667L91.4375 644.719C89.7127 644.523 86.2188 644.125 86.2188 644.125C86.2188 644.125 92.9376 638.999 95.8125 636.844L78.5938 607L43.9375 607ZM314.219 607C320.132 617.951 326.895 629.671 335.188 642.531L338.375 637L321.062 607L314.219 607ZM407.656 607L390.344 637L407.656 667L442.312 667L459.625 637L442.312 607L407.656 607ZM528.906 607L511.594 637L528.906 667L563.531 667L580.875 637L563.531 607L528.906 607ZM650.125 607L632.812 637L644.5 657.25C673.008 631.737 690.281 621.437 690.281 621.438C690.281 621.438 691.191 619.014 691.406 618.5L684.781 607L650.125 607ZM892.625 607L890.281 611.031C917.544 628.583 941.313 642.469 941.312 642.469C941.312 642.469 931.233 642.516 883.562 651.281L892.625 667L927.25 667L944.594 637L927.25 607L892.625 607ZM1013.88 607L996.531 637L1013.88 667L1024 667L1024 607L1013.88 607ZM0 642L0 702L17.9688 702L35.2812 672L17.9688 642L0 642ZM347.031 642L341.312 651.906C351.267 666.692 362.8 682.34 376.188 698.5C377.235 699.764 378.181 700.76 379.219 702L381.688 702L399 672L381.688 642L347.031 642ZM468.281 642L450.969 672L468.281 702L502.906 702L520.25 672L502.906 642L468.281 642ZM589.531 642L572.188 672L589.531 702L599.438 702C613.211 687.114 625.834 674.376 636.906 664.094L624.156 642L589.531 642ZM953.25 642L935.906 672L953.25 702L987.875 702L1005.19 672L987.875 642L953.25 642ZM102.219 646.062L87.25 672L104.562 702L139.188 702L156.531 672L145.156 652.344C127.834 649.574 112.77 647.389 102.219 646.062ZM873.188 653.281C858.31 656.085 841.292 659.396 819.344 663.906L814.688 672L832 702L866.656 702L883.969 672L873.188 653.281ZM157.906 654.375L165.188 667L199.812 667L202.094 663.062C187.334 659.701 172.392 656.864 157.906 654.375ZM212.219 665.5L208.469 672L225.812 702L260.438 702L271.531 682.781C255.407 677.364 234.935 671.076 212.219 665.5ZM43.9375 677L26.625 707L43.9375 737L78.5938 737L95.9062 707L78.5938 677L43.9375 677ZM165.188 677L147.875 707L165.188 737L199.812 737L217.156 707L199.812 677L165.188 677ZM407.656 677L390.344 707L403.719 730.156C405.93 732.592 407.943 734.683 410.094 737L442.312 737L459.625 707L442.312 677L407.656 677ZM528.906 677L511.594 707L528.906 737L563.531 737L580.875 707L563.531 677L528.906 677ZM771.375 677L754.062 707L771.375 737L806.031 737L823.344 707L806.031 677L771.375 677ZM892.625 677L875.312 707L892.625 737L927.25 737L944.594 707L927.25 677L892.625 677ZM1013.88 677L996.531 707L1013.88 737L1024 737L1024 677L1013.88 677ZM758.906 678.594C730.575 686.896 715.928 693.882 708.75 698.562L710.75 702L745.406 702L758.906 678.594ZM281.156 686.094L269.094 707L277.125 720.906C293.143 706.764 305.063 694.875 305.062 694.875C305.062 694.875 295.336 691.078 281.156 686.094ZM0 712L0 772L17.9688 772L35.2812 742L17.9688 712L0 712ZM104.562 712L87.25 742L104.562 772L139.188 772L156.531 742L139.188 712L104.562 712ZM225.812 712L208.469 742L225.812 772L248.156 772C234.475 767.153 224.156 763.625 224.156 763.625C224.156 763.625 248.65 745.313 268.875 728.125C269.077 727.954 269.237 727.796 269.438 727.625L260.438 712L225.812 712ZM468.281 712L450.969 742L468.281 772L502.906 772L520.25 742L502.906 712L468.281 712ZM589.531 712L588.25 714.219C588.952 713.428 589.584 712.779 590.281 712L589.531 712ZM710.75 712L710.562 712.344C716.592 716.645 726.158 722.708 742.688 731.188C750.036 734.957 755.996 737.63 761.656 740.125L745.406 712L710.75 712ZM832 712L814.688 742L832 772L866.656 772L883.969 742L866.656 712L832 712ZM953.25 712L935.906 742L953.25 772L987.875 772L1005.19 742L987.875 712L953.25 712ZM43.9375 747L26.625 777L43.9375 807L78.5938 807L95.9062 777L78.5938 747L43.9375 747ZM165.188 747L147.875 777L165.188 807L199.812 807L217.156 777L199.812 747L165.188 747ZM419.438 747C433.403 761.557 445.727 773.395 456.25 782.844L459.625 777L442.312 747L419.438 747ZM528.906 747L511.594 777L524.844 799.969C533.185 784.338 543.106 768.57 555.438 753.094C557.128 750.972 558.738 749.06 560.406 747L528.906 747ZM778.656 747C788.57 750.445 793.625 751.25 793.625 751.25C793.625 751.25 783.915 751.753 766.281 755.844L754.062 777L771.375 807L806.031 807L823.344 777L806.031 747L778.656 747ZM892.625 747L875.312 777L892.625 807L927.25 807L944.594 777L927.25 747L892.625 747ZM1013.88 747L996.531 777L1013.88 807L1024 807L1024 747L1013.88 747ZM752.656 759.438C741.982 762.42 729.674 766.378 715.281 772L745.406 772L752.656 759.438ZM701.781 777.531C685.725 784.374 667.852 793.001 648.312 803.875L650.125 807L684.781 807L701.781 777.531ZM271 780.281L286.406 807L321.062 807L324.312 801.375C305.123 793.323 286.847 786.186 271 780.281ZM0 782L0 842L17.9688 842L35.2812 812L17.9688 782L0 782ZM104.562 782L87.25 812L104.562 842L139.188 842L156.531 812L139.188 782L104.562 782ZM225.812 782L208.469 812L225.812 842L260.438 842L277.75 812L260.438 782L225.812 782ZM468.281 782L463.906 789.594C482.473 805.656 493.594 813.094 493.594 813.094C493.594 813.094 484.814 830.466 481.969 842L502.906 842L512.969 824.562C514.972 819.865 517.029 815.166 519.344 810.406L502.906 782L468.281 782ZM710.75 782L693.438 812L710.75 842L745.406 842L762.719 812L745.406 782L710.75 782ZM832 782L814.688 812L832 842L866.656 842L883.969 812L866.656 782L832 782ZM953.25 782L935.906 812L953.25 842L987.875 842L1005.19 812L987.875 782L953.25 782ZM333.625 805.25L329.719 812L347.031 842L381.688 842L388.156 830.812C378.008 825.682 367.599 820.538 356.812 815.562C349.131 812.02 341.365 808.579 333.625 805.25ZM639.625 808.781C634.567 811.698 629.478 814.655 624.219 817.875C611.582 825.612 600.041 833.659 589.438 841.812L589.531 842L624.156 842L641.469 812L639.625 808.781ZM43.9375 817L26.625 847L43.9375 877L78.5938 877L95.9062 847L78.5938 817L43.9375 817ZM165.188 817L147.875 847L165.188 877L199.812 877L217.156 847L199.812 817L165.188 817ZM286.406 817L269.094 847L286.406 877L321.062 877L338.375 847L321.062 817L286.406 817ZM650.125 817L632.812 847L650.125 877L684.781 877L702.094 847L684.781 817L650.125 817ZM771.375 817L754.062 847L771.375 877L806.031 877L823.344 847L806.031 817L771.375 817ZM892.625 817L875.312 847L892.625 877L927.25 877L944.594 847L927.25 817L892.625 817ZM1013.88 817L996.531 847L1013.88 877L1020.84 877C1022.83 866.29 1024 855.286 1024 844L1024 817L1013.88 817ZM397.062 835.344L390.344 847L407.656 877L442.312 877L449.688 864.188C435.735 856.101 418.335 846.335 397.062 835.344ZM579 850.25C568.159 859.205 558.431 868.167 549.781 877L563.531 877L579 850.25ZM0.40625 852C1.33798 873.148 5.79036 893.362 13.4062 912L17.9688 912L35.2812 882L17.9688 852L0.40625 852ZM104.562 852L87.25 882L104.562 912L139.188 912L156.531 882L139.188 852L104.562 852ZM225.812 852L208.469 882L225.812 912L260.438 912L277.75 882L260.438 852L225.812 852ZM347.031 852L329.719 882L347.031 912L381.688 912L399 882L381.688 852L347.031 852ZM480 852C477.977 864.309 476.188 879.875 476.188 879.875C476.188 879.875 468.642 875.298 458.344 869.219L450.969 882L468.281 912L489.281 912C491.486 894.642 495.606 874.074 502.719 852L480 852ZM589.531 852L572.188 882L589.531 912L624.156 912L641.469 882L624.156 852L589.531 852ZM710.75 852L693.438 882L710.75 912L745.406 912L762.719 882L745.406 852L710.75 852ZM832 852L814.688 882L832 912L866.656 912L883.969 882L866.656 852L832 852ZM953.25 852L935.906 882L953.25 912L987.875 912L1005.19 882L987.875 852L953.25 852ZM43.9375 887L26.625 917L43.9375 947L78.5938 947L95.9062 917L78.5938 887L43.9375 887ZM165.188 887L147.875 917L165.188 947L199.812 947L217.156 917L199.812 887L165.188 887ZM286.406 887L269.094 917L286.406 947L321.062 947L338.375 917L321.062 887L286.406 887ZM407.656 887L390.344 917L407.656 947L442.312 947L459.625 917L442.312 887L407.656 887ZM540.375 887C529.61 898.855 520.714 910.146 513.531 920.344L528.906 947L563.531 947L580.875 917L563.531 887L540.375 887ZM650.125 887L632.812 917L650.125 947L684.781 947L702.094 917L684.781 887L650.125 887ZM771.375 887L754.062 917L771.375 947L806.031 947L823.344 917L806.031 887L771.375 887ZM892.625 887L875.312 917L892.625 947L927.25 947L944.594 917L927.25 887L892.625 887ZM1013.88 887L996.531 917L1003.03 928.25C1009.87 915.365 1015.06 901.505 1018.62 887L1013.88 887ZM17.9688 922C22.0503 930.462 26.6653 938.588 31.9688 946.25L17.9688 922ZM104.562 922L87.25 952L104.562 982L139.188 982L156.531 952L139.188 922L104.562 922ZM225.812 922L208.469 952L225.812 982L260.438 982L277.75 952L260.438 922L225.812 922ZM347.031 922L329.719 952L347.031 982L381.688 982L399 952L381.688 922L347.031 922ZM468.281 922L450.969 952L468.281 982L502.906 982L520.25 952L507.281 929.531C493.137 951.175 487.313 965.875 487.312 965.875C487.312 965.875 485.635 948.71 488.188 922L468.281 922ZM589.531 922L572.188 952L589.531 982L624.156 982L641.469 952L624.156 922L589.531 922ZM710.75 922L693.438 952L710.75 982L745.406 982L762.719 952L745.406 922L710.75 922ZM832 922L814.688 952L832 982L866.656 982L883.969 952L866.656 922L832 922ZM953.25 922L935.906 952L953.25 982L959.5 982C974.334 969.571 986.991 954.708 997.188 938.156L987.875 922L953.25 922ZM43.9375 957L42.3125 959.844C55.4568 975.449 71.2552 988.688 88.9375 999.094L95.9062 987L78.5938 957L43.9375 957ZM165.188 957L147.875 987L165.188 1017L199.812 1017L217.156 987L199.812 957L165.188 957ZM286.406 957L269.094 987L286.406 1017L321.062 1017L338.375 987L321.062 957L286.406 957ZM407.656 957L390.344 987L407.656 1017L442.312 1017L459.625 987L442.312 957L407.656 957ZM528.906 957L511.594 987L528.906 1017L563.531 1017L580.875 987L563.531 957L528.906 957ZM650.125 957L632.812 987L650.125 1017L684.781 1017L702.094 987L684.781 957L650.125 957ZM771.375 957L754.062 987L771.375 1017L806.031 1017L823.344 987L806.031 957L771.375 957ZM892.625 957L875.312 987L892.625 1017L893.281 1017C909.602 1012.36 924.925 1005.46 939 996.688L944.594 987L927.25 957L892.625 957ZM104.562 992L97.6562 1003.94C115.675 1013.23 135.453 1019.53 156.375 1022.28L156.531 1022L139.188 992L104.562 992ZM225.812 992L208.469 1022L209.625 1024L276.594 1024L277.75 1022L260.438 992L225.812 992ZM347.031 992L329.719 1022L330.875 1024L397.844 1024L399 1022L381.688 992L347.031 992ZM468.281 992L450.969 1022L452.125 1024L519.094 1024L520.25 1022L502.906 992L468.281 992ZM589.531 992L572.188 1022L573.344 1024L640.312 1024L641.469 1022L624.156 992L589.531 992ZM710.75 992L693.438 1022L694.594 1024L761.562 1024L762.719 1022L745.406 992L710.75 992ZM832 992L814.688 1022L815.844 1024L844 1024C857.283 1024 870.193 1022.45 882.656 1019.72L866.656 992L832 992Z" fill="#0d2b45" fill-rule="nonzero" opacity="0" stroke="none"/>
<g opacity="0">
<mask height="1024" id="StrokeMask_3" maskUnits="userSpaceOnUse" width="1024" x="0" y="0">
<rect fill="#000000" height="1024" stroke="none" width="1024" x="0" y="0"/>
<use fill="#ffffff" fill-rule="evenodd" stroke="none" xlink:href="#Fill_3"/>
</mask>
<use fill="none" mask="url(#StrokeMask_3)" stroke="#ffecd6" stroke-linecap="round" stroke-linejoin="round" stroke-width="32" xlink:href="#Fill_3"/>
</g>
<path d="M0 0L1024 0L1024 1024L0 1024L0 0Z" fill="#ffecd6" fill-rule="nonzero" opacity="1" stroke="none"/>
<path d="M43.9375-23L26.625 7L43.9375 37L78.5938 37L95.9062 7L78.5938-23L43.9375-23ZM165.188-23L147.875 7L165.188 37L199.812 37L217.156 7L199.812-23L165.188-23ZM286.406-23L269.094 7L286.406 37L321.062 37L338.375 7L321.062-23L286.406-23ZM407.656-23L390.344 7L407.656 37L442.312 37L459.625 7L442.312-23L407.656-23ZM528.906-23L511.594 7L528.906 37L563.531 37L580.875 7L563.531-23L528.906-23ZM650.125-23L632.812 7L650.125 37L684.781 37L702.094 7L684.781-23L650.125-23ZM771.375-23L754.062 7L771.375 37L806.031 37L823.344 7L806.031-23L771.375-23ZM892.625-23L875.312 7L892.625 37L927.25 37L944.594 7L927.25-23L892.625-23ZM1013.88-23L996.531 7L1013.88 37L1048.5 37L1065.81 7L1048.5-23L1013.88-23ZM-16.6875 12L-34 42L-16.6875 72L17.9688 72L35.2812 42L17.9688 12L-16.6875 12ZM104.562 12L87.25 42L104.562 72L139.188 72L156.531 42L139.188 12L104.562 12ZM225.812 12L208.469 42L225.812 72L260.438 72L277.75 42L260.438 12L225.812 12ZM347.031 12L329.719 42L347.031 72L381.688 72L399 42L381.688 12L347.031 12ZM468.281 12L450.969 42L468.281 72L502.906 72L520.25 42L502.906 12L468.281 12ZM589.531 12L572.188 42L578.906 53.6562C583.931 51.3517 589.706 49.9177 596.844 50.0312C607.113 50.1946 617.522 55.9801 627.625 66.0312L641.469 42L624.156 12L589.531 12ZM710.75 12L693.438 42L710.75 72L745.406 72L762.719 42L745.406 12L710.75 12ZM832 12L814.688 42L832 72L866.656 72L883.969 42L866.656 12L832 12ZM953.25 12L935.906 42L953.25 72L987.875 72L1005.19 42L987.875 12L953.25 12ZM43.9375 47L26.625 77L43.9375 107L78.5938 107L95.9062 77L78.5938 47L43.9375 47ZM165.188 47L147.875 77L165.188 107L199.812 107L217.156 77L199.812 47L165.188 47ZM286.406 47L269.094 77L286.406 107L321.062 107L338.375 77L321.062 47L286.406 47ZM407.656 47L395.281 68.4375C405.927 57.2779 416.951 50.8603 427.812 50.6875C435.648 50.5628 441.812 52.3318 447.031 55.1875L442.312 47L407.656 47ZM528.906 47L511.594 77L528.906 107L529 107C547.972 97.1938 554.154 72.3383 570.406 58.9062L563.531 47L528.906 47ZM650.125 47L634.656 73.7812C642.007 82.6887 649.068 94.0491 655.781 107L684.781 107L702.094 77L684.781 47L650.125 47ZM771.375 47L754.062 77L771.375 107L806.031 107L823.344 77L806.031 47L771.375 47ZM892.625 47L875.312 77L892.625 107L927.25 107L944.594 77L927.25 47L892.625 47ZM1013.88 47L996.531 77L1013.88 107L1048.5 107L1065.81 77L1048.5 47L1013.88 47ZM-16.6875 82L-34 112L-16.6875 142L17.9688 142L35.2812 112L17.9688 82L-16.6875 82ZM104.562 82L87.25 112L104.562 142L139.188 142L156.531 112L139.188 82L104.562 82ZM225.812 82L208.469 112L225.812 142L260.438 142L277.75 112L260.438 82L225.812 82ZM347.031 82L329.719 112L347.031 142L353.438 142C362.198 119.044 372.177 99.1854 382.781 83.9062L381.688 82L347.031 82ZM470.469 82C479.571 96.7702 488.984 111.214 511.125 111.219C514.079 111.219 516.805 110.954 519.344 110.469L502.906 82L470.469 82ZM710.75 82L693.438 112L710.75 142L745.406 142L762.719 112L745.406 82L710.75 82ZM832 82L814.688 112L832 142L866.656 142L883.969 112L866.656 82L832 82ZM953.25 82L935.906 112L953.25 142L987.875 142L1005.19 112L987.875 82L953.25 82ZM43.9375 117L26.625 147L43.9375 177L78.5938 177L95.9062 147L78.5938 117L43.9375 117ZM165.188 117L147.875 147L165.188 177L199.812 177L217.156 147L199.812 117L165.188 117ZM286.406 117L269.094 147L286.406 177L321.062 177L338.375 147L321.062 117L286.406 117ZM660.844 117C667.739 131.679 674.134 148.094 679.781 166C680.745 169.054 681.647 172.979 682.531 177L684.781 177L702.094 147L684.781 117L660.844 117ZM771.375 117L754.062 147L771.375 177L806.031 177L823.344 147L806.031 117L771.375 117ZM892.625 117L875.312 147L892.625 177L927.25 177L944.594 147L927.25 117L892.625 117ZM1013.88 117L996.531 147L1013.88 177L1048.5 177L1065.81 147L1048.5 117L1013.88 117ZM-16.6875 152L-34 182L-16.6875 212L17.9688 212L35.2812 182L17.9688 152L-16.6875 152ZM104.562 152L87.25 182L104.562 212L139.188 212L156.531 182L139.188 152L104.562 152ZM225.812 152L208.469 182L225.812 212L260.438 212L277.75 182L260.438 152L225.812 152ZM347.031 152L329.719 182L338.656 197.469C340.354 185.149 342.496 174.2 344.875 166.656C346.476 161.581 348.255 156.848 349.969 152L347.031 152ZM710.75 152L693.438 182L710.75 212L745.406 212L762.719 182L745.406 152L710.75 152ZM832 152L814.688 182L832 212L866.656 212L883.969 182L866.656 152L832 152ZM953.25 152L935.906 182L953.25 212L987.875 212L1005.19 182L987.875 152L953.25 152ZM43.9375 187L26.625 217L43.9375 247L78.5938 247L95.9062 217L78.5938 187L43.9375 187ZM165.188 187L147.875 217L165.188 247L199.812 247L217.156 217L199.812 187L165.188 187ZM286.406 187L269.094 217L286.406 247L321.062 247L336.281 220.625C336.441 218.457 336.524 216.267 336.719 214.125L321.062 187L286.406 187ZM684.438 187C687.097 202.401 688.993 221.03 689.344 239.125L702.094 217L684.781 187L684.438 187ZM771.375 187L754.062 217L771.375 247L806.031 247L823.344 217L806.031 187L771.375 187ZM892.625 187L875.312 217L892.625 247L927.25 247L944.594 217L927.25 187L892.625 187ZM1013.88 187L996.531 217L1013.88 247L1048.5 247L1065.81 217L1048.5 187L1013.88 187ZM-16.6875 222L-34 252L-16.6875 282L17.9688 282L35.2812 252L17.9688 222L-16.6875 222ZM104.562 222L87.25 252L104.562 282L139.188 282L156.531 252L139.188 222L104.562 222ZM225.812 222L208.469 252L225.812 282L260.438 282L277.75 252L260.438 222L225.812 222ZM710.75 222L693.438 252L710.75 282L745.406 282L762.719 252L745.406 222L710.75 222ZM832 222L814.688 252L832 282L866.656 282L883.969 252L866.656 222L832 222ZM953.25 222L935.906 252L953.25 282L987.875 282L1005.19 252L987.875 222L953.25 222ZM335.375 242.219L329.719 252L335.938 262.781C335.455 256.28 335.298 249.394 335.375 242.219ZM43.9375 257L26.625 287L43.9375 317L78.5938 317L95.9062 287L78.5938 257L43.9375 257ZM165.188 257L147.875 287L165.188 317L199.812 317L217.156 287L199.812 257L165.188 257ZM286.406 257L269.094 287L286.406 317L321.062 317L338.375 287L321.062 257L286.406 257ZM771.375 257L754.062 287L771.375 317L806.031 317L823.344 287L806.031 257L771.375 257ZM892.625 257L875.312 287L892.625 317L927.25 317L944.594 287L927.25 257L892.625 257ZM1013.88 257L996.531 287L1013.88 317L1048.5 317L1065.81 287L1048.5 257L1013.88 257ZM688.562 263.562C687.316 278.817 684.54 291.554 679.125 297.156C674.411 303.29 663.312 308.837 648.188 313.656L650.125 317L684.781 317L702.094 287L688.562 263.562ZM-16.6875 292L-34 322L-16.6875 352L17.9688 352L35.2812 322L17.9688 292L-16.6875 292ZM104.562 292L87.25 322L104.562 352L139.188 352L156.531 322L139.188 292L104.562 292ZM225.812 292L208.469 322L225.812 352L260.438 352L277.75 322L260.438 292L225.812 292ZM710.75 292L693.438 322L710.75 352L745.406 352L762.719 322L745.406 292L710.75 292ZM832 292L814.688 322L832 352L866.656 352L883.969 322L866.656 292L832 292ZM953.25 292L935.906 322L953.25 352L987.875 352L1005.19 322L987.875 292L953.25 292ZM344.438 296.5L329.719 322L347.031 352L381.688 352L399 322L397.5 319.406C370.721 313.612 351.541 305.881 344.844 297.094C344.701 296.924 344.567 296.706 344.438 296.5ZM638.344 316.594C621.079 321.139 599.554 324.751 575.125 327.062L589.531 352L624.156 352L641.469 322L638.344 316.594ZM43.9375 327L26.625 357L43.9375 387L78.5938 387L95.9062 357L78.5938 327L43.9375 327ZM165.188 327L147.875 357L165.188 387L199.812 387L217.156 357L199.812 327L165.188 327ZM286.406 327L269.094 357L280.031 375.938C296.158 373.493 313.409 371.394 331.188 369.469L338.375 357L321.062 327L286.406 327ZM407.656 327L390.344 357L407.656 387L442.312 387L459.625 357L442.312 327L407.656 327ZM650.125 327L632.812 357L650.125 387L653.688 387C669.126 381.493 679.078 375.05 681.344 368.094C686.01 368.559 690.215 369.186 694.781 369.688L702.094 357L684.781 327L650.125 327ZM771.375 327L754.062 357L767.188 379.719C780.023 381.981 792.152 384.421 803.562 387L806.031 387L823.344 357L806.031 327L771.375 327ZM892.625 327L875.312 357L892.625 387L927.25 387L944.594 357L927.25 327L892.625 327ZM1013.88 327L996.531 357L1013.88 387L1048.5 387L1065.81 357L1048.5 327L1013.88 327ZM454.188 327.594L468.281 352L502.906 352L515.656 329.906C514.414 329.913 513.249 330 512 330C491.672 330 472.242 329.135 454.188 327.594ZM564.094 327.969C552.362 328.862 540.074 329.385 527.375 329.656L511.594 357L528.906 387L563.531 387L580.875 357L564.094 327.969ZM-16.6875 362L-34 392L-16.6875 422L17.9688 422L35.2812 392L17.9688 362L-16.6875 362ZM104.562 362L87.25 392L104.562 422L127.094 422C132.071 418.247 138.242 414.615 145.5 411.094L156.531 392L139.188 362L104.562 362ZM225.812 362L210 389.375C227.843 385.021 247.776 381.071 269.406 377.562L260.438 362L225.812 362ZM347.031 362L343.062 368.875C347.213 379.009 367.378 388.004 397.562 394.5L399 392L381.688 362L347.031 362ZM468.281 362L450.969 392L457.156 402.719C474.427 404.112 492.712 405 512 405C512.257 405 512.494 404.969 512.75 404.969L520.25 392L502.906 362L468.281 362ZM589.531 362L572.188 392L577.844 401.812C602.453 399.369 623.741 395.56 640.812 390.844L624.156 362L589.531 362ZM710.75 362L705.562 370.969C722.442 372.964 739.073 375.027 754.344 377.5L745.406 362L710.75 362ZM832 362L815.906 389.875C839.138 395.63 858.819 402.033 874.188 408.969L883.969 392L866.656 362L832 362ZM953.25 362L935.906 392L953.25 422L987.875 422L1005.19 392L987.875 362L953.25 362ZM43.9375 397L26.625 427L43.9375 457L78.5938 457L95.9062 427L78.5938 397L43.9375 397ZM165.188 397L160.938 404.344C167.463 401.816 174.711 399.363 182.375 397L165.188 397ZM411.25 397C421.722 398.832 432.867 400.456 445 401.688L442.312 397L411.25 397ZM528.906 397L524.469 404.719C539.211 404.463 553.392 403.804 566.844 402.719L563.531 397L528.906 397ZM892.625 397L883.156 413.406C901.657 423.171 912 433.818 912 445C912 449.077 910.58 453.076 907.969 457L927.25 457L944.594 427L927.25 397L892.625 397ZM1013.88 397L996.531 427L1013.88 457L1048.5 457L1065.81 427L1048.5 397L1013.88 397ZM-16.6875 432L-34 462L-16.6875 492L17.9688 492L35.2812 462L17.9688 432L-16.6875 432ZM104.562 432L87.25 462L104.562 492L139.188 492L146.469 479.438C124.47 468.907 112 457.264 112 445C112 440.578 113.649 436.237 116.719 432L104.562 432ZM953.25 432L935.906 462L953.25 492L987.875 492L1005.19 462L987.875 432L953.25 432ZM43.9375 467L26.625 497L43.9375 527L78.5938 527L95.9062 497L78.5938 467L43.9375 467ZM898.406 467C895.631 469.207 892.446 471.368 888.875 473.5L875.312 497L892.625 527L927.25 527L944.594 497L927.25 467L898.406 467ZM1013.88 467L996.531 497L1013.88 527L1048.5 527L1065.81 497L1048.5 467L1013.88 467ZM872.656 481.594C864.537 485.202 855.56 488.695 845.219 492L866.656 492L872.656 481.594ZM155.656 483.5L147.875 497L165.188 527L199.812 527L214.469 501.656C191.349 496.179 171.518 490.119 155.656 483.5ZM822.438 498.562C804.563 503.235 784.37 507.477 762.281 511.25L771.375 527L806.031 527L822.438 498.562ZM-16.6875 502L-34 532L-16.6875 562L17.9688 562L35.2812 532L17.9688 502L-16.6875 502ZM104.562 502L87.25 532L104.562 562L139.188 562L156.531 532L139.188 502L104.562 502ZM832 502L814.688 532L832 562L866.656 562L883.969 532L866.656 502L832 502ZM953.25 502L935.906 532L953.25 562L987.875 562L1005.19 532L987.875 502L953.25 502ZM224.625 504.031L208.469 532L211.062 536.5C213.501 537.08 227.481 540.373 245.25 542.562C253.886 543.627 262.843 544.299 270.375 544.781L277.75 532L266.188 511.969C251.486 509.528 237.576 506.877 224.625 504.031ZM751.719 512.938C735.451 515.534 718.432 517.916 700.375 519.969L693.438 532L704.375 550.938C704.211 548.36 704 544.406 704 544.406C704 544.406 715.34 546.477 747.719 542.344C751.755 541.828 754.354 541.282 757.656 540.75L762.719 532L751.719 512.938ZM278.875 513.969L286.406 527L321.062 527L325.031 520.125C308.915 518.31 293.589 516.218 278.875 513.969ZM688.125 521.219C675.392 522.55 662.296 523.739 648.844 524.781L650.125 527L684.781 527L688.125 521.219ZM335.938 521.25L329.719 532L347.031 562L381.688 562L399 532L395.719 526.344C374.967 525.005 355.11 523.254 335.938 521.25ZM637.812 525.656C617.237 527.106 595.906 528.149 574 528.875L572.188 532L589.531 562L624.156 562L641.469 532L637.812 525.656ZM452.719 528.969L450.969 532L468.281 562L502.906 562L520.25 532L519.062 529.938C516.689 529.946 514.384 530 512 530C491.805 530 472.11 529.583 452.719 528.969ZM43.9375 537L26.625 567L43.9375 597L78.5938 597L95.9062 567L78.5938 537L43.9375 537ZM165.188 537L147.875 567L158.75 585.875C181.827 565.368 196.515 549.835 203.094 542.688L199.812 537L165.188 537ZM286.406 537L281.562 545.406C283.038 545.466 286.781 545.656 286.781 545.656C286.781 545.656 293.054 565.921 308.938 597L321.062 597L338.375 567L321.062 537L286.406 537ZM407.656 537L390.344 567L407.656 597L442.312 597L459.625 567L442.312 537L407.656 537ZM528.906 537L511.594 567L528.906 597L563.531 597L580.875 567L563.531 537L528.906 537ZM650.125 537L632.812 567L650.125 597L684.781 597L702.094 567L684.781 537L650.125 537ZM771.375 537L770.531 538.469C772.859 537.956 774.897 537.472 776.656 537L771.375 537ZM792.062 537C795.395 540.03 803.809 547.517 819.344 560.094L806.031 537L792.062 537ZM892.625 537L875.312 567L892.625 597L927.25 597L944.594 567L927.25 537L892.625 537ZM1013.88 537L996.531 567L1013.88 597L1048.5 597L1065.81 567L1048.5 537L1013.88 537ZM-16.6875 572L-34 602L-16.6875 632L17.9688 632L35.2812 602L17.9688 572L-16.6875 572ZM104.562 572L87.25 602L103.844 630.75C116.818 620.841 133.066 608.012 151.062 592.531L139.188 572L104.562 572ZM347.031 572L329.719 602L347.031 632L381.688 632L399 602L381.688 572L347.031 572ZM468.281 572L450.969 602L468.281 632L502.906 632L520.25 602L502.906 572L468.281 572ZM589.531 572L572.188 602L589.531 632L624.156 632L641.469 602L624.156 572L589.531 572ZM834.5 572C841.126 577.095 847.843 582.249 855.312 587.562C863.929 593.692 873.005 599.752 881.906 605.594L883.969 602L866.656 572L834.5 572ZM953.25 572L935.906 602L953.25 632L987.875 632L1005.19 602L987.875 572L953.25 572ZM700.875 589.125L693.438 602L695.938 606.344C697.693 601.201 699.384 595.317 700.875 589.125ZM43.9375 607L26.625 637L43.9375 667L78.5938 667L91.4375 644.719C89.7127 644.523 86.2188 644.125 86.2188 644.125C86.2188 644.125 92.9376 638.999 95.8125 636.844L78.5938 607L43.9375 607ZM314.219 607C320.132 617.951 326.895 629.671 335.188 642.531L338.375 637L321.062 607L314.219 607ZM407.656 607L390.344 637L407.656 667L442.312 667L459.625 637L442.312 607L407.656 607ZM528.906 607L511.594 637L528.906 667L563.531 667L580.875 637L563.531 607L528.906 607ZM650.125 607L632.812 637L644.5 657.25C673.008 631.737 690.281 621.437 690.281 621.438C690.281 621.438 691.191 619.014 691.406 618.5L684.781 607L650.125 607ZM892.625 607L890.281 611.031C917.544 628.583 941.312 642.469 941.312 642.469C941.312 642.469 931.233 642.516 883.562 651.281L892.625 667L927.25 667L944.594 637L927.25 607L892.625 607ZM1013.88 607L996.531 637L1013.88 667L1048.5 667L1065.81 637L1048.5 607L1013.88 607ZM-16.6875 642L-34 672L-16.6875 702L17.9688 702L35.2812 672L17.9688 642L-16.6875 642ZM347.031 642L341.312 651.906C351.267 666.692 362.8 682.34 376.188 698.5C377.235 699.764 378.181 700.76 379.219 702L381.688 702L399 672L381.688 642L347.031 642ZM468.281 642L450.969 672L468.281 702L502.906 702L520.25 672L502.906 642L468.281 642ZM589.531 642L572.188 672L589.531 702L599.438 702C613.211 687.114 625.834 674.376 636.906 664.094L624.156 642L589.531 642ZM953.25 642L935.906 672L953.25 702L987.875 702L1005.19 672L987.875 642L953.25 642ZM102.219 646.062L87.25 672L104.562 702L139.188 702L156.531 672L145.156 652.344C127.834 649.574 112.77 647.389 102.219 646.062ZM873.188 653.281C858.31 656.085 841.292 659.395 819.344 663.906L814.688 672L832 702L866.656 702L883.969 672L873.188 653.281ZM157.906 654.375L165.188 667L199.812 667L202.094 663.062C187.334 659.701 172.392 656.864 157.906 654.375ZM212.219 665.5L208.469 672L225.812 702L260.438 702L271.531 682.781C255.407 677.364 234.935 671.076 212.219 665.5ZM43.9375 677L26.625 707L43.9375 737L78.5938 737L95.9062 707L78.5938 677L43.9375 677ZM165.188 677L147.875 707L165.188 737L199.812 737L217.156 707L199.812 677L165.188 677ZM407.656 677L390.344 707L403.719 730.156C405.93 732.592 407.943 734.683 410.094 737L442.312 737L459.625 707L442.312 677L407.656 677ZM528.906 677L511.594 707L528.906 737L563.531 737L580.875 707L563.531 677L528.906 677ZM771.375 677L754.062 707L771.375 737L806.031 737L823.344 707L806.031 677L771.375 677ZM892.625 677L875.312 707L892.625 737L927.25 737L944.594 707L927.25 677L892.625 677ZM1013.88 677L996.531 707L1013.88 737L1048.5 737L1065.81 707L1048.5 677L1013.88 677ZM758.906 678.594C730.575 686.896 715.928 693.881 708.75 698.562L710.75 702L745.406 702L758.906 678.594ZM281.156 686.094L269.094 707L277.125 720.906C293.143 706.764 305.063 694.875 305.062 694.875C305.062 694.875 295.336 691.077 281.156 686.094ZM-16.6875 712L-34 742L-16.6875 772L17.9688 772L35.2812 742L17.9688 712L-16.6875 712ZM104.562 712L87.25 742L104.562 772L139.188 772L156.531 742L139.188 712L104.562 712ZM225.812 712L208.469 742L225.812 772L248.156 772C234.475 767.153 224.156 763.625 224.156 763.625C224.156 763.625 248.65 745.313 268.875 728.125C269.077 727.954 269.237 727.796 269.438 727.625L260.438 712L225.812 712ZM468.281 712L450.969 742L468.281 772L502.906 772L520.25 742L502.906 712L468.281 712ZM589.531 712L588.25 714.219C588.952 713.428 589.584 712.779 590.281 712L589.531 712ZM710.75 712L710.562 712.344C716.592 716.645 726.158 722.708 742.688 731.188C750.036 734.957 755.996 737.63 761.656 740.125L745.406 712L710.75 712ZM832 712L814.688 742L832 772L866.656 772L883.969 742L866.656 712L832 712ZM953.25 712L935.906 742L953.25 772L987.875 772L1005.19 742L987.875 712L953.25 712ZM43.9375 747L26.625 777L43.9375 807L78.5938 807L95.9062 777L78.5938 747L43.9375 747ZM165.188 747L147.875 777L165.188 807L199.812 807L217.156 777L199.812 747L165.188 747ZM419.438 747C433.403 761.557 445.728 773.395 456.25 782.844L459.625 777L442.312 747L419.438 747ZM528.906 747L511.594 777L524.844 799.969C533.185 784.338 543.106 768.57 555.438 753.094C557.128 750.972 558.738 749.06 560.406 747L528.906 747ZM778.656 747C788.57 750.445 793.625 751.25 793.625 751.25C793.625 751.25 783.915 751.753 766.281 755.844L754.062 777L771.375 807L806.031 807L823.344 777L806.031 747L778.656 747ZM892.625 747L875.312 777L892.625 807L927.25 807L944.594 777L927.25 747L892.625 747ZM1013.88 747L996.531 777L1013.88 807L1048.5 807L1065.81 777L1048.5 747L1013.88 747ZM752.656 759.438C741.982 762.42 729.674 766.378 715.281 772L745.406 772L752.656 759.438ZM701.781 777.531C685.725 784.374 667.852 793.001 648.312 803.875L650.125 807L684.781 807L701.781 777.531ZM271 780.281L286.406 807L321.062 807L324.312 801.375C305.123 793.323 286.847 786.186 271 780.281ZM-16.6875 782L-34 812L-16.6875 842L17.9688 842L35.2812 812L17.9688 782L-16.6875 782ZM104.562 782L87.25 812L104.562 842L139.188 842L156.531 812L139.188 782L104.562 782ZM225.812 782L208.469 812L225.812 842L260.438 842L277.75 812L260.438 782L225.812 782ZM468.281 782L463.906 789.594C482.473 805.656 493.594 813.094 493.594 813.094C493.594 813.094 484.814 830.466 481.969 842L502.906 842L512.969 824.562C514.972 819.865 517.029 815.166 519.344 810.406L502.906 782L468.281 782ZM710.75 782L693.438 812L710.75 842L745.406 842L762.719 812L745.406 782L710.75 782ZM832 782L814.688 812L832 842L866.656 842L883.969 812L866.656 782L832 782ZM953.25 782L935.906 812L953.25 842L987.875 842L1005.19 812L987.875 782L953.25 782ZM333.625 805.25L329.719 812L347.031 842L381.688 842L388.156 830.812C378.008 825.682 367.599 820.538 356.812 815.562C349.131 812.02 341.365 808.579 333.625 805.25ZM639.625 808.781C634.567 811.698 629.478 814.655 624.219 817.875C611.582 825.612 600.041 833.659 589.438 841.812L589.531 842L624.156 842L641.469 812L639.625 808.781ZM43.9375 817L26.625 847L43.9375 877L78.5938 877L95.9062 847L78.5938 817L43.9375 817ZM165.188 817L147.875 847L165.188 877L199.812 877L217.156 847L199.812 817L165.188 817ZM286.406 817L269.094 847L286.406 877L321.062 877L338.375 847L321.062 817L286.406 817ZM650.125 817L632.812 847L650.125 877L684.781 877L702.094 847L684.781 817L650.125 817ZM771.375 817L754.062 847L771.375 877L806.031 877L823.344 847L806.031 817L771.375 817ZM892.625 817L875.312 847L892.625 877L927.25 877L944.594 847L927.25 817L892.625 817ZM1013.88 817L996.531 847L1013.88 877L1048.5 877L1065.81 847L1048.5 817L1013.88 817ZM397.062 835.344L390.344 847L407.656 877L442.312 877L449.688 864.188C435.735 856.101 418.335 846.334 397.062 835.344ZM579 850.25C568.159 859.205 558.431 868.167 549.781 877L563.531 877L579 850.25ZM-16.6875 852L-34 882L-16.6875 912L17.9688 912L35.2812 882L17.9688 852L-16.6875 852ZM104.562 852L87.25 882L104.562 912L139.188 912L156.531 882L139.188 852L104.562 852ZM225.812 852L208.469 882L225.812 912L260.438 912L277.75 882L260.438 852L225.812 852ZM347.031 852L329.719 882L347.031 912L381.688 912L399 882L381.688 852L347.031 852ZM480 852C477.977 864.309 476.188 879.875 476.188 879.875C476.188 879.875 468.642 875.298 458.344 869.219L450.969 882L468.281 912L489.281 912C491.486 894.642 495.606 874.074 502.719 852L480 852ZM589.531 852L572.188 882L589.531 912L624.156 912L641.469 882L624.156 852L589.531 852ZM710.75 852L693.438 882L710.75 912L745.406 912L762.719 882L745.406 852L710.75 852ZM832 852L814.688 882L832 912L866.656 912L883.969 882L866.656 852L832 852ZM953.25 852L935.906 882L953.25 912L987.875 912L1005.19 882L987.875 852L953.25 852ZM43.9375 887L26.625 917L43.9375 947L78.5938 947L95.9062 917L78.5938 887L43.9375 887ZM165.188 887L147.875 917L165.188 947L199.812 947L217.156 917L199.812 887L165.188 887ZM286.406 887L269.094 917L286.406 947L321.062 947L338.375 917L321.062 887L286.406 887ZM407.656 887L390.344 917L407.656 947L442.312 947L459.625 917L442.312 887L407.656 887ZM540.375 887C529.61 898.855 520.714 910.146 513.531 920.344L528.906 947L563.531 947L580.875 917L563.531 887L540.375 887ZM650.125 887L632.812 917L650.125 947L684.781 947L702.094 917L684.781 887L650.125 887ZM771.375 887L754.062 917L771.375 947L806.031 947L823.344 917L806.031 887L771.375 887ZM892.625 887L875.312 917L892.625 947L927.25 947L944.594 917L927.25 887L892.625 887ZM1013.88 887L996.531 917L1013.88 947L1048.5 947L1065.81 917L1048.5 887L1013.88 887ZM-16.6875 922L-34 952L-16.6875 982L17.9688 982L35.2812 952L17.9688 922L-16.6875 922ZM104.562 922L87.25 952L104.562 982L139.188 982L156.531 952L139.188 922L104.562 922ZM225.812 922L208.469 952L225.812 982L260.438 982L277.75 952L260.438 922L225.812 922ZM347.031 922L329.719 952L347.031 982L381.688 982L399 952L381.688 922L347.031 922ZM468.281 922L450.969 952L468.281 982L502.906 982L520.25 952L507.281 929.531C493.137 951.175 487.312 965.875 487.312 965.875C487.312 965.875 485.635 948.71 488.188 922L468.281 922ZM589.531 922L572.188 952L589.531 982L624.156 982L641.469 952L624.156 922L589.531 922ZM710.75 922L693.438 952L710.75 982L745.406 982L762.719 952L745.406 922L710.75 922ZM832 922L814.688 952L832 982L866.656 982L883.969 952L866.656 922L832 922ZM953.25 922L935.906 952L953.25 982L987.875 982L1005.19 952L987.875 922L953.25 922ZM43.9375 957L26.625 987L43.9375 1017L78.5938 1017L95.9062 987L78.5938 957L43.9375 957ZM165.188 957L147.875 987L165.188 1017L199.812 1017L217.156 987L199.812 957L165.188 957ZM286.406 957L269.094 987L286.406 1017L321.062 1017L338.375 987L321.062 957L286.406 957ZM407.656 957L390.344 987L407.656 1017L442.312 1017L459.625 987L442.312 957L407.656 957ZM528.906 957L511.594 987L528.906 1017L563.531 1017L580.875 987L563.531 957L528.906 957ZM650.125 957L632.812 987L650.125 1017L684.781 1017L702.094 987L684.781 957L650.125 957ZM771.375 957L754.062 987L771.375 1017L806.031 1017L823.344 987L806.031 957L771.375 957ZM892.625 957L875.312 987L892.625 1017L927.25 1017L944.594 987L927.25 957L892.625 957ZM1013.88 957L996.531 987L1013.88 1017L1048.5 1017L1065.81 987L1048.5 957L1013.88 957ZM-16.6875 992L-34 1022L-16.6875 1052L17.9688 1052L35.2812 1022L17.9688 992L-16.6875 992ZM104.562 992L87.25 1022L104.562 1052L139.188 1052L156.531 1022L139.188 992L104.562 992ZM225.812 992L208.469 1022L225.812 1052L260.438 1052L277.75 1022L260.438 992L225.812 992ZM347.031 992L329.719 1022L347.031 1052L381.688 1052L399 1022L381.688 992L347.031 992ZM468.281 992L450.969 1022L468.281 1052L502.906 1052L520.25 1022L502.906 992L468.281 992ZM589.531 992L572.188 1022L589.531 1052L624.156 1052L641.469 1022L624.156 992L589.531 992ZM710.75 992L693.438 1022L710.75 1052L745.406 1052L762.719 1022L745.406 992L710.75 992ZM832 992L814.688 1022L832 1052L866.656 1052L883.969 1022L866.656 992L832 992ZM953.25 992L935.906 1022L953.25 1052L987.875 1052L1005.19 1022L987.875 992L953.25 992ZM43.9375 1027L26.625 1057L43.9375 1087L78.5938 1087L95.9062 1057L78.5938 1027L43.9375 1027ZM165.188 1027L147.875 1057L165.188 1087L199.812 1087L217.156 1057L199.812 1027L165.188 1027ZM286.406 1027L269.094 1057L286.406 1087L321.062 1087L338.375 1057L321.062 1027L286.406 1027ZM407.656 1027L390.344 1057L407.656 1087L442.312 1087L459.625 1057L442.312 1027L407.656 1027ZM528.906 1027L511.594 1057L528.906 1087L563.531 1087L580.875 1057L563.531 1027L528.906 1027ZM650.125 1027L632.812 1057L650.125 1087L684.781 1087L702.094 1057L684.781 1027L650.125 1027ZM771.375 1027L754.062 1057L771.375 1087L806.031 1087L823.344 1057L806.031 1027L771.375 1027ZM892.625 1027L875.312 1057L892.625 1087L927.25 1087L944.594 1057L927.25 1027L892.625 1027ZM1013.88 1027L996.531 1057L1013.88 1087L1048.5 1087L1065.81 1057L1048.5 1027L1013.88 1027ZM-16.6875 1062L-34 1092L-16.6875 1122L17.9688 1122L35.2812 1092L17.9688 1062L-16.6875 1062ZM104.562 1062L87.25 1092L104.562 1122L139.188 1122L156.531 1092L139.188 1062L104.562 1062ZM225.812 1062L208.469 1092L225.812 1122L260.438 1122L277.75 1092L260.438 1062L225.812 1062ZM347.031 1062L329.719 1092L347.031 1122L381.688 1122L399 1092L381.688 1062L347.031 1062ZM468.281 1062L450.969 1092L468.281 1122L502.906 1122L520.25 1092L502.906 1062L468.281 1062ZM589.531 1062L572.188 1092L589.531 1122L624.156 1122L641.469 1092L624.156 1062L589.531 1062ZM710.75 1062L693.438 1092L710.75 1122L745.406 1122L762.719 1092L745.406 1062L710.75 1062ZM832 1062L814.688 1092L832 1122L866.656 1122L883.969 1092L866.656 1062L832 1062ZM953.25 1062L935.906 1092L953.25 1122L987.875 1122L1005.19 1092L987.875 1062L953.25 1062Z" fill="#0d2b45" fill-rule="nonzero" opacity="1" stroke="none"/>
</g>
</svg>
